<svg xmlns="http://www.w3.org/2000/svg" data-name="9" viewBox="0 0 4680 3120"><defs><clipPath id="a"><path fill="none" d="M2636.543 749.109c50.978 58.165 85.038 128.91 101.148 204.556 11.038 51.83 52.955 124.106 192.433 165.886 234.91 70.365 522.656 221.337 378.784 579.717-143.873 358.38-372.696 686.658-1319.346 475.31-946.65-211.346-770.15-1056.555-399.805-1339.826 331.057-253.221 749.208-425.176 1046.786-85.643Z"/></clipPath><clipPath id="b"><path fill="none" d="M3692.682 2252.828s-97.297-192.482-229.444-180.505-181.207 62.754-181.207 62.754l-105.699 224.716Z"/></clipPath><clipPath id="c"><path fill="none" d="M3105.016 1551.332s23.533-85.041 87.594-36.637 66.682 178.644 87.595 261.506c17.323 68.638 43.143 75.828 56.217 133.353s15.689 377.439-214.41 481.572-661.533 32.227-661.533 32.227l-506.15-2.433a38.31 38.31 0 0 1-38.11-39.052c1.938-103.877 27.632-385.061 244.87-459.24 262.784-1.308 332.075-7.417 332.075-7.417s51.351 85.86 135.495 91.089c-29.598 120.279 76.3 337.303 311.628 300.697s295.467-307.234 274.549-406.595-58.832-324.23-109.82-349.07Z"/></clipPath><clipPath id="d"><path fill="none" d="M2285.011 2496.14s-63.784 84.626-125.445 97.344-58.908 42.592-20.977 48.881 204.91 0 231.483-15.723 7.706-105.601 7.706-105.601Z"/></clipPath><clipPath id="e"><path fill="none" d="M2117.437 1612.374a6.855 6.855 0 0 0-5.852 4.952c-11.166 39.568-92.922 332.092-90.724 406.957 2.114 72.019 62.968 356.13 75.562 414.262 1.04 4.804 10.595 33.306 14.61 30.472 18.524-13.074 52.826-27.747 89.073-16.51 4.532 1.405 30.309-1.48 30.125-6.22-2.805-72.239-44.532-307.117-65.924-386.791a6.786 6.786 0 0 1 .141-4.026c23.968-68.752 59.834-157.636 79.024-204.368 2.863-6.972 13.237-4.916 13.237 2.621v278.012c0 92.888 2.872 357.962-.18 406.784-.26 4.149 0 0 4.146-.287 24.872-1.72 86.555-1.046 117.685 15.596a6.883 6.883 0 0 0 10.182-5.993c.419-76.169 4.158-36.755-.037-146.035-4.416-114.996 5.92-236.998 2.03-291.645a6.44 6.44 0 0 1 .087-1.615c20.526-114.288 9.995-260.756 20.576-311.517 9.334-44.78-7.815-178.028-12.062-209.337a6.865 6.865 0 0 0-7.576-5.895Z"/></clipPath><clipPath id="f"><path fill="none" d="M2107.265 2448.214a8.937 8.937 0 0 0-1.128 10.994c4.945 8.11-8.413 39.71-36.944 76.237-56.685 72.573-106.644 127.086-50.623 135.522s249.007-86.915 242.105-132.735-38.65-103.168-38.65-103.168-47.769-55.033-114.76 13.15Z"/></clipPath><clipPath id="g"><path fill="none" d="m1878.762 1072.794-7.075 18.278 83.726 137.382 77.83-50-90.212-139.268-64.269 33.608z"/></clipPath><clipPath id="h"><path fill="none" d="M2096.288 824.556s23.474 81.123-29.622 97.692c26.929 23.984 26.28 58.28 46.24 84.827 11.977 15.929 47.373 9.784 59.491 4.483 3.224 27.868 3.324 67.98 3.324 67.98l86.71-33.561-11.301-84.757-15.964-30.207s-39.24-29.036-39.24-74.143c-16.151 13.465-61.938 5.386-61.264-32.315s-38.374 0-38.374 0Z"/></clipPath><clipPath id="i"><path fill="none" d="M2105.376 803.012s-77.253 23.732-52.007 43.423 141.883 5.555 169.149-10.098c76.748 37.364 99.974 47.967 99.974 47.967s39.889-108.557-80.787-147.436c-94.545-30.46-116.637 25.246-136.329 66.144Z"/></clipPath><clipPath id="j"><path fill="none" d="M2131.969 1079.538s7.398-31.508 76.093-43.3 79.308-16.51 82.845 0c48.35 7.075 67.217 10.613 94.34 55.424s25.943 58.962 25.943 58.962l-22.406 455.188s-221.697 51.886-275.942 7.075c-9.434-27.122 0-30.66 0-30.66s-44.811-7.028-41.274-73.68 11.793-104.386 11.793-104.386-35.377 114.387-74.292 94.34-104.953-101.415-90.802-222.877c45.99-21.226 57.783-23.585 57.783-23.585l5.896 7.075s23.585-137.97 57.783-152.122 92.24-27.454 92.24-27.454Z"/></clipPath><clipPath id="k"><path fill="none" d="m2138.153 1307.135-7.229 286.479 212.263 79.414 183.962-122.641v-267.378l-388.996 24.126z"/></clipPath><clipPath id="l"><path fill="none" d="m2159.566 1242.487 262.237-88.325 117.924 74.292v48.365l-201.257 99.04-213.836-73.362v-46.134l34.932-13.876z"/></clipPath></defs><ellipse cx="2340" cy="2651.393" fill="#98bbc0" rx="1609.826" ry="108.607" class="color98bbc0 svgShape"/><path fill="#e8eff1" d="M2930.124 1119.55c-139.478-41.779-181.395-114.055-192.433-165.884-16.11-75.647-50.17-146.392-101.148-204.557-297.578-339.533-715.728-167.579-1046.786 85.643-370.344 283.271-546.845 1128.48 399.805 1339.827 946.65 211.347 1175.473-116.93 1319.345-475.31 143.873-358.38-143.872-509.353-378.783-579.719Z" class="colore8eff1 svgShape"/><path fill="#c6dbe0" d="M2403.583 1797.251C1497.487 1527.114 1810.54 410.223 1810.54 410.223L1562.343 565.51l-602.802 932.28 1832.302 1400.26 977.179-658.29-153.213-874.937s-306.13 702.565-1212.226 432.428Z" clip-path="url(#a)" class="colorc6dbe0 svgShape"/><rect width="783.017" height="2230.512" x="920.134" y="374.764" fill="#ffb564" rx="39" class="colorffb564 svgShape"/><rect width="783.017" height="2245.276" x="1005.04" y="360" fill="#ffffff" rx="39" class="colorfff svgShape"/><rect width="783.017" height="2245.276" x="1038.058" y="360" fill="#ffd578" rx="39" class="colorffd578 svgShape"/><path fill="#ffeecc" d="M1080.511 442.085h707.545v1974.513h-707.545z" class="colorfec svgShape"/><rect width="28.302" height="391.813" x="943.719" y="803.395" fill="#ffffff" rx="6" class="colorfff svgShape"/><path fill="#a6c45d" d="M1081.784 1298.218h707.545v1234.62h-707.545z" class="colora6c45d svgShape"/><path fill="#d6d8d0" d="M1198.709 1298.229h88.439v152.114h-88.439zM1198.709 1797.023h88.439v735.811h-88.439zM1462.846 1563.544h326.39v60.138h-326.39z" class="colord6d8d0 svgShape"/><path fill="#d6d8d0" d="m1081.787 2090.639 707.545 237.016v-134.427l-707.468-180.827-.077 78.238zM1081.864 1971.358l71.76 23.585V1844l-71.76-35.377v162.735zM1081.864 2440.696l71.76 25.944v-285.377l-71.76-28.302v287.735zM1420.132 1797.023s-7.075 25.75-75.47 37.543l14.15 91.98h183.962l-23.585-129.524ZM1356.454 1959.565v73.114l205.188 47.169-9.434-120.283h-195.754zM1620.604 2079.848l168.728 51.887v-172.17h-189.954l21.226 120.283zM1565.273 1797.014l30.966 129.528h193.09v-112.075l-7.406-17.453h-216.65zM1542.774 1657.68l22.508 107.048h213.825l-36.575-107.048h-199.758zM1314.001 2532.833h259.433v-233.645l-259.433-84.906v318.551zM1632.058 2532.833h157.274v-159.275l-157.274-55.503v214.778zM1260.558 1428.223c-70.26 0-133.703 23.113-178.773 60.236v270.447c45.07 37.122 108.514 60.236 178.773 60.236 136.768 0 247.64-87.524 247.64-195.448 0-107.948-110.872-195.471-247.64-195.471Z" class="colord6d8d0 svgShape"/><ellipse cx="1260.563" cy="1623.683" fill="#ffffff" rx="178.699" ry="141.045" class="colorfff svgShape"/><path fill="#e22d2d" d="M1356.454 1015.574c.38-.005.763-.014 1.136-.014h-2.273c.373 0 .757.009 1.137.014ZM1355.317 1380.602h2.273s-.397-.415-1.136-1.208c-.74.793-1.137 1.208-1.137 1.208Z" class="colore22d2d svgShape"/><path fill="#c62106" d="M1356.454 1015.574c-45.163.626-133.315 38.631-118.299 146.963 14.214 102.544 106.976 204.712 118.299 216.857 11.323-12.145 104.084-114.313 118.298-216.857 15.017-108.332-73.135-146.337-118.298-146.963Zm.272 162.353a47.86 47.86 0 1 1 47.861-47.861 47.86 47.86 0 0 1-47.86 47.86Z" class="colorc62106 svgShape"/><path fill="#ffffff" d="M1356.726 1080.205a49.86 49.86 0 1 0 49.861 49.86 49.917 49.917 0 0 0-49.861-49.86Zm0 95.722a45.86 45.86 0 1 1 45.861-45.861 45.913 45.913 0 0 1-45.861 45.86Z" class="colorfff svgShape"/><path fill="#ffffff" d="M1356.482 1013.574h-.055c-27.961.388-67.82 14.337-93.834 44.628-23.379 27.222-32.268 62.417-26.419 104.61 14.325 103.343 108.165 206.521 118.817 217.946l1.463 1.568 1.463-1.568c10.654-11.427 104.494-114.623 118.817-217.946 5.847-42.193-3.04-77.388-26.42-104.61-26.014-30.29-65.871-44.24-93.832-44.628Zm116.289 148.689c-13.641 98.409-100.582 197.03-116.317 214.184-15.734-17.152-102.674-115.755-116.317-214.184-5.685-41.007 2.892-75.142 25.491-101.455 25.193-29.334 63.765-42.849 90.826-43.234 27.062.385 65.632 13.9 90.825 43.234 22.6 26.314 31.176 60.448 25.492 101.455Z" class="colorfff svgShape"/><ellipse cx="1361.171" cy="1425.369" fill="#c62106" rx="47.169" ry="24.974" class="colorc62106 svgShape"/><path fill="#ffffff" d="M1361.171 1398.396c-27.572 0-49.17 11.848-49.17 26.973s21.598 26.974 49.17 26.974c27.571 0 49.169-11.849 49.169-26.974s-21.598-26.973-49.169-26.973Zm0 49.947c-24.484 0-45.17-10.52-45.17-22.974s20.686-22.973 45.17-22.973 45.169 10.52 45.169 22.973-20.685 22.974-45.169 22.974ZM1697.984 439.28v310.384h258.24v48.368a42.79 42.79 0 0 0 21.149 37.075c11.716 6.793 27.085 11.443 42.902 4.248 14.964-6.806 24.126-22.23 24.126-38.67v-51.021l-247.64-310.384Z" class="colorfff svgShape"/><path fill="#e22d2d" d="M1609.54 439.28v310.384h258.242v48.368a42.79 42.79 0 0 0 21.148 37.075c11.716 6.793 27.084 11.443 42.902 4.248 14.964-6.806 24.126-22.23 24.126-38.67v-51.021l-247.64-310.384Z" class="colore22d2d svgShape"/><path fill="#ffffff" d="M1521.098 439.28v310.384h258.24v48.368a42.79 42.79 0 0 0 21.149 37.075c11.716 6.793 27.084 11.443 42.902 4.248 14.964-6.806 24.126-22.23 24.126-38.67v-51.021l-247.64-310.384Z" class="colorfff svgShape"/><path fill="#e22d2d" d="M1433.554 438.1v311.32h257.075v48.592a42.64 42.64 0 0 0 20.9 36.835c11.598 6.803 26.82 11.466 42.487 4.265 14.823-6.813 23.877-22.133 23.877-38.446V749.42L1531.738 438.1Z" class="colore22d2d svgShape"/><path fill="#ffffff" d="M1344.211 439.28v310.384h258.241v48.368a42.79 42.79 0 0 0 21.148 37.075c11.717 6.793 27.085 11.443 42.902 4.248 14.964-6.806 24.127-22.23 24.127-38.67v-51.021L1442.99 439.28Z" class="colorfff svgShape"/><path fill="#e22d2d" d="M1255.768 439.28v310.384h258.241v48.368a42.79 42.79 0 0 0 21.148 37.075c11.717 6.793 27.085 11.443 42.902 4.248 14.964-6.806 24.127-22.23 24.127-38.67v-51.021l-247.64-310.384Z" class="colore22d2d svgShape"/><path fill="#ffffff" d="M1167.325 439.28v310.384h258.241v48.368a42.79 42.79 0 0 0 21.148 37.075c11.716 6.793 27.085 11.443 42.902 4.248 14.964-6.806 24.127-22.23 24.127-38.67v-51.021L1266.102 439.28Z" class="colorfff svgShape"/><path fill="#e22d2d" d="M1078.882 439.28v322.326h258.241v36.426a42.79 42.79 0 0 0 21.148 37.075c11.717 6.793 27.085 11.443 42.902 4.248 14.964-6.806 24.127-22.23 24.127-38.67v-51.021L1177.659 439.28Z" class="colore22d2d svgShape"/><circle cx="3472.515" cy="2384.34" r="239.042" fill="#422b18" transform="rotate(-45 3472.515 2384.34)" class="color422b18 svgShape"/><circle cx="3477.356" cy="2384.34" r="185.227" fill="#d8d2d5" transform="rotate(-45 3477.356 2384.34)" class="colord8d2d5 svgShape"/><circle cx="3472.515" cy="2384.34" r="79.259" fill="#422b18" transform="rotate(-16.845 3472.562 2384.365)" class="color422b18 svgShape"/><path fill="#227767" d="M3283.864 1483.745c-73.238-9.197-99.098 41.937-99.098 41.937l33.992 106.708 78.415-5.117a18.12 18.12 0 0 0 16.176-12.62c4.519-14.599 8.575-44.998-1.462-103.8a32.77 32.77 0 0 0-28.023-27.108Z" class="color227767 svgShape"/><path fill="#7dc3be" d="m3318.119 1932.86-15.689 188.49 160.727-49.003c-1.532-3.258-7.442-16.263-27.375-60.818-33.338-74.52-117.663-78.668-117.663-78.668ZM3463.157 2072.347c1.03 2.191.08-.025.08-.025Z" class="color7dc3be svgShape"/><path fill="#227767" d="M3463.238 2072.322c-132.148 11.977-181.207 62.755-181.207 62.755l-105.699 224.715 516.35-106.964s-97.297-192.483-229.444-180.506Z" class="color227767 svgShape"/><g clip-path="url(#b)"><path fill="#115649" d="M3701.875 2230.381c-14.879-13.822-37.4-14.417-57.691-13.579-98.108 4.055-194.909 22.928-292.259 35.742-7.816 1.028-15.899 2-23.469-.194-7.571-2.196-14.553-8.412-15.098-16.277-.587-8.448 6.107-15.64 13.16-20.327s15.168-8.267 20.356-14.96 5.72-18.103-1.601-22.36c-3.24-1.882-7.504-2.094-10.01-4.88-5.398-6 2.633-14.414 8.956-19.432 20.666-16.401 30.128-45.662 22.978-71.058-.723-2.57-1.688-5.23-3.739-6.937-3.045-2.537-7.483-2.234-11.405-1.661-47.925 6.994-91.356 33.825-125.331 68.34-33.976 34.517-59.374 76.483-82.075 119.266-9.41 17.732-18.528 36.016-21.941 55.797-3.413 19.781-.41 41.553 12.346 57.05 17.411 21.152 47.692 25.687 75.075 26.517 56.187 1.703 112.22-5.836 167.768-14.466 104.643-16.259 212.009-37.79 299.552-97.377 11.887-8.09 24.16-18.102 26.987-32.2 1.741-8.68-.422-17.614-2.573-26.201Z" class="color115649 svgShape"/></g><circle cx="2199.201" cy="2401.439" r="239.042" fill="#422b18" class="color422b18 svgShape"/><circle cx="2204.042" cy="2401.439" r="185.227" fill="#d8d2d5" transform="rotate(-45 2204.042 2401.44)" class="colord8d2d5 svgShape"/><circle cx="2199.201" cy="2401.439" r="79.259" fill="#422b18" class="color422b18 svgShape"/><path fill="#44a294" d="M3280.205 1776.201c-20.913-82.862-23.533-213.102-87.595-261.506-64.061-48.404-87.594 36.638-87.594 36.638 50.988 24.84 88.902 249.709 109.82 349.07 20.918 99.36-39.222 369.987-274.55 406.594-235.327 36.607-341.225-180.418-311.627-300.697-84.144-5.23-135.495-91.088-135.495-91.088s-69.291 6.108-332.075 7.416c-217.238 74.179-242.932 355.363-244.87 459.24a38.31 38.31 0 0 0 38.11 39.052l506.15 2.434s431.435 71.905 661.533-32.228c230.098-104.133 227.484-424.047 214.41-481.572-13.074-57.525-38.894-64.715-56.217-133.353Z" class="color44a294 svgShape"/><path fill="#338c7d" d="m3097.743 1393.398 3.043 79.257s177.929 140.599 163.221 425.103c-14.707 284.504-32.355 414.242-270.613 461.148s-553.257-7.7-636.956-62.757c195.738-174.8 66.721-470.145-245.48-322.478-183.696 86.885-335.326 519.325-335.326 519.325l1303.97 45.182 455.02-625.078-187.348-430.462Z" clip-path="url(#c)" class="color338c7d svgShape"/><path fill="#422b18" d="M2165.275 1871.134h329.637a11.325 11.325 0 0 1 11.326 11.325v31.393a11.325 11.325 0 0 1-11.326 11.325h-329.637a11.326 11.326 0 0 1-11.326-11.325v-31.392a11.326 11.326 0 0 1 11.326-11.326Z" class="color422b18 svgShape"/><path fill="#422b18" d="M2455.25 1849.728s41.182 148.074 173.41 156.572c53.783-40.529 108.91-156.572 108.91-156.572s-197.995-40.188-243.1-57.838c-45.104-17.65-39.22 57.838-39.22 57.838Z" class="color422b18 svgShape"/><path fill="#7dc3be" d="M2344.122 1963.156c-333.38-58.832-484.009 438.426-407.1 453.536 67.182 13.198 523.457 6.662 523.457 6.662s217.025-401.366-116.357-460.198Z" class="color7dc3be svgShape"/><path fill="#ffffff" d="M2198.35 2173.918c-143.507 0-259.842 113.05-259.842 252.507h519.684c0-139.456-116.335-252.508-259.842-252.508Z" class="colorfff svgShape"/><path fill="#338c7d" d="M2287.445 2285.386h-176.487a2 2 0 0 0 0 4h176.487a2 2 0 0 0 0-4ZM2275.683 2315.871h-156.881a2 2 0 0 0 0 4h156.88a2 2 0 0 0 0-4ZM2257.377 2348.14h-116.351a2 2 0 1 0 0 4h116.351a2 2 0 0 0 0-4Z" class="color338c7d svgShape"/><path fill="#ffffff" d="M3125.28 1530.755a24.494 24.494 0 1 0 24.495 24.494 24.494 24.494 0 0 0-24.495-24.495Z" class="colorfff svgShape"/><path fill="#1c5376" d="M2285.011 2496.14s-63.784 84.626-125.445 97.344c-61.661 12.718-58.909 42.592-20.977 48.881 37.932 6.29 204.91 0 231.483-15.723 26.574-15.723 7.706-105.601 7.706-105.601Z" class="color1c5376 svgShape"/><g clip-path="url(#d)"><path fill="#ffffff" d="M2377.778 2605.778c-129.933 37.53-280.144 12.104-280.144 12.104l27 53.61 279.087-20.099s17.806-58.251-25.943-45.615Z" class="colorfff svgShape"/><path fill="#ffffff" d="M2273.788 2551.39a27.943 27.943 0 1 0 27.944 27.943 27.975 27.975 0 0 0-27.944-27.943Zm0 51.886a23.943 23.943 0 1 1 23.944-23.943 23.97 23.97 0 0 1-23.944 23.943Z" class="colorfff svgShape"/></g><path fill="#feaa40" d="m2391.56 1581.79-274.123 30.584a6.855 6.855 0 0 0-5.852 4.952c-11.166 39.568-92.922 332.092-90.724 406.957 2.114 72.018 62.968 356.13 75.562 414.263 1.041 4.803 10.595 33.305 14.61 30.47 18.524-13.074 52.826-27.746 89.073-16.509 4.532 1.405 30.309-1.48 30.125-6.22-2.805-72.24-44.533-307.116-65.924-386.791a6.786 6.786 0 0 1 .141-4.026c23.968-68.752 59.834-157.636 79.024-204.367 2.863-6.973 13.237-4.917 13.237 2.62v278.012c0 92.888 2.872 357.962-.18 406.784-.26 4.149 0 0 4.146-.286 24.872-1.721 52.638-25.585 117.684 15.595 4.409 2.79 10.154-.776 10.183-5.993.42-76.169 4.158-36.755-.038-146.035-4.415-114.996 5.92-236.998 2.031-291.645a6.461 6.461 0 0 1 .087-1.615c20.526-114.289 9.995-260.756 20.575-311.518 9.334-44.78-7.815-178.027-12.061-209.336a6.864 6.864 0 0 0-7.576-5.895Z" class="colorfeaa40 svgShape"/><g clip-path="url(#e)"><path fill="#ea8c26" d="M2115.426 2071.786c28.528-25.77 30.033-5.209 64.24-5.209-51.1-42.77-104.193 0-104.193 0s-42.82-58.644-14.744-168.421 84.73-304.542 84.73-304.542l-23.366-11.867-101.275 173.828-60.66 312.632 91.03 437.87 102.761-9.938-8.49-69.714s-4.315-52.927-26.657-116.625c-22.341-63.697-20.11-96.679 0-164.503 20.111-67.824-31.903-47.741-3.376-73.511ZM2292.22 2079.848s25.81-251.16 2.225-271.225c-23.584-20.066-62.213 70.027-62.213 70.027l4.823 219.539-13.452 461.129 64.422-27.005s4.062-55.041-12.342-130.874c-16.404-75.832 7.872-49.757 11.762-160.296s-27.825-55.127 16.434-91.701c44.259-36.573 146.226 42.453 107.318 3.52-38.907-38.934-118.977-73.114-118.977-73.114Z" class="colorea8c26 svgShape"/><path fill="#ffffff" d="M2182.87 1562.938c-5.176 16.258-126.71 398.81-124.14 454.824 2.565 55.847 98.976 461.596 103.08 478.84l3.89-.925c-1.004-4.22-100.426-422.628-102.973-478.099-2.54-55.302 122.69-449.452 123.955-453.427Z" class="colorfff svgShape"/><path fill="#ffffff" d="M2201.162 1570.014c-5.174 16.258-126.71 398.81-124.138 454.823 2.564 55.847 98.975 461.596 103.079 478.84l3.89-.925c-1.004-4.22-100.426-422.628-102.973-478.099-2.54-55.301 122.69-449.452 123.955-453.426Z" class="colorfff svgShape"/></g><path fill="#1c5376" d="M2222.025 2435.064s-47.769-55.033-114.76 13.15a8.938 8.938 0 0 0-1.129 10.994c4.946 8.11-8.412 39.71-36.943 76.237-56.685 72.573-106.644 127.086-50.623 135.522 56.021 8.436 249.007-86.915 242.105-132.735-6.901-45.82-38.65-103.168-38.65-103.168Z" class="color1c5376 svgShape"/><g clip-path="url(#f)"><path fill="#ffffff" d="M2265.357 2526.013c-60.652-18.683-173.742 51.464-216.194 79.765a145.542 145.542 0 0 1-3.145-62.992l-67.61 43.88-14.15 119.378 247.64-73.899s114.111-87.448 53.46-106.132Z" class="colorfff svgShape"/><path fill="#ffffff" d="M2146.009 2471.702a29.207 29.207 0 1 0 29.207 29.207 29.24 29.24 0 0 0-29.207-29.207Zm0 54.414a25.207 25.207 0 1 1 25.207-25.207 25.235 25.235 0 0 1-25.207 25.207Z" class="colorfff svgShape"/></g><path d="M2124.937 2578.325c-66.554 33.096-114.394 72.217-106.854 87.379 7.54 15.162 67.604.623 134.158-32.473 66.554-33.096 114.394-72.216 106.855-87.378-7.54-15.162-67.605-.624-134.159 32.472Z" fill="#000000" class="color000 svgShape"/><path fill="#ff8a65" d="M1904.116 1207.228c0 28.302 19.473 65.956 19.473 65.956l75.666-13.492v-75.656l-65.658-59.355s-29.481 54.245-29.481 82.547Z" class="colorff8a65 svgShape"/><path fill="#227767" d="m1878.762 1072.794-7.075 18.278 83.726 137.382 77.83-50-90.212-139.268-64.269 33.608z" class="color227767 svgShape"/><path fill="#c6dbe0" d="m1894.092 1083.407 73.828 113.797 42.328-28.302-69.576-110.848-46.58 25.353z" class="colorc6dbe0 svgShape"/><g clip-path="url(#g)"><path fill="#125145" d="m1961.252 1212.178-89.565-148.5-17.435 32 91.47 143 93.53-51-6.009-18-71.991 42.5z" class="color125145 svgShape"/></g><path fill="#601416" d="m2113.118 788.875-16.83 35.68 154.842 150.162s80.114-29.317 67.322-104.55c-12.79-75.233-205.334-81.292-205.334-81.292Z" class="color601416 svgShape"/><path fill="#ff8a65" d="M2235.166 931.013s-39.24-29.036-39.24-74.143c-16.151 13.465-61.938 5.386-61.264-32.314.673-37.701-38.374 0-38.374 0s23.473 81.123-29.622 97.693c26.929 23.983 26.28 58.278 46.24 84.826 11.977 15.928 47.373 9.784 59.492 4.483 3.223 27.868 3.323 67.98 3.323 67.98l86.71-33.561-11.301-84.756Z" class="colorff8a65 svgShape"/><g clip-path="url(#h)"><path fill="#e54f2c" d="M2172.398 794.428h-66.042l-13.561 40.749s12.971-11.792 28.301 12.972c15.33 24.764 55.622 51.363 67.459 36.66 22.355 50.904 43.39 93.336 66.386 104.988 22.995 11.653 18.278-69.125 18.278-69.125ZM2148.126 1016.991c-36.463 1.558-7.572 44.011-7.572 44.011s81.36-19.457 67.508-73.703c0 0-23.472 28.134-59.936 29.692Z" class="colore54f2c svgShape"/></g><path d="M2131.52 867.713a2 2 0 0 0 .895 3.898c.235-.051 23.49-5.2 30.092 7.553a2 2 0 1 0 3.553-1.838c-8.026-15.504-33.458-9.862-34.54-9.613Z" fill="#000000" class="color000 svgShape"/><ellipse cx="2143.077" cy="895.244" rx="7.742" ry="10.435" fill="#000000" class="color000 svgShape"/><path fill="#feaa40" d="M2241.705 736.868c-94.546-30.46-116.637 25.246-136.329 66.144 0 0-77.252 23.731-52.007 43.424 25.246 19.691 141.883 5.553 169.149-10.099 76.748 37.364 99.974 47.967 99.974 47.967s39.889-108.557-80.787-147.436Z" class="colorfeaa40 svgShape"/><path d="M2172.398 1011.558c15.156 0 39.648-22.81 50.01-38.315 10.36-15.505 40.736-77.999 48.187-113.61-18.973-9.164-27.92-13.5-27.92-13.5s-30.296 125.868-70.277 165.425Z" fill="#000000" class="color000 svgShape"/><g clip-path="url(#i)"><path fill="#ea8c26" d="M2222.518 836.337c-76.645-56.033-117.142-33.325-117.142-33.325l-53.069-9.698-33.018 75.217s279.873 23.84 203.229-32.194ZM2292.873 837.339c-10.22 56.603-14.397 57.905-14.397 57.905l67.07 16.78 21.226-153.301-104.34-23.585s40.66 45.597 30.44 102.2Z" class="colorea8c26 svgShape"/><path fill="#ffffff" d="M2254.35 782.308s18.083-3.262 36.164 25.492c18.082 28.753.786-64.014-36.163-25.492Z" opacity=".51" class="colorfff svgShape"/><circle cx="2245.079" cy="769.96" r="9.271" fill="#ffffff" opacity=".51" transform="rotate(-13.283 2245.079 769.96)" class="colorfff svgShape"/></g><path fill="#e54f2c" d="M2159.79 968.27c-19.927 10.284-43.468 4.567-43.703 4.507a2 2 0 0 0-.975 3.88 74.954 74.954 0 0 0 16.876 1.812c8.65 0 19.473-1.399 29.635-6.644a2 2 0 0 0-1.834-3.554Z" class="colore54f2c svgShape"/><ellipse cx="2178.989" cy="925.912" fill="#e54f2c" rx="24.804" ry="9.801" class="colore54f2c svgShape"/><path fill="#e22d2d" d="M2371.26 1071.309c-16.013-19.86-31.438-26.486-55.73-31.133-7.311-1.367-15.448-2.594-24.623-3.938-3.537-16.51-14.15-11.793-82.853 0-68.68 11.792-76.085 43.302-76.085 43.302s-1.038.236-2.948.683a1007.17 1007.17 0 0 0-36.769 9.505c-17.43 4.858-37.335 10.967-52.523 17.264-34.198 14.151-57.783 152.122-57.783 152.122l-5.896-7.075s-11.792 2.359-57.783 23.585c-14.151 121.462 51.887 202.83 90.802 222.877 38.183 19.67 72.971-90.118 74.268-94.222-.495 2.265-8.35 39.694-11.768 104.269-3.539 66.65 41.273 73.679 41.273 73.679s-9.434 3.538 0 30.66c54.245 44.811 275.942-7.075 275.942-7.075l20.755-421.792 1.486-30.047v-.024l.165-3.325s1.18-14.15-25.943-58.962a188.197 188.197 0 0 0-13.986-20.353Z" class="colore22d2d svgShape"/><g clip-path="url(#j)"><path fill="#cc1717" d="M2314.492 1025.552s-81.629 4.396-92.996 26.409c0 0 55.094-26.73 167.008 0s-74.012-26.41-74.012-26.41ZM1985.538 1240.375s-30.715 78.88-24.657 135.484 39.933 60.142 29.32 11.793c-10.613-48.35-4.663-147.277-4.663-147.277ZM2294.445 1581.747c-81.368 25.464-127.358-3.058-109.67-18.203s47.17-22.59 0-27.728c-47.169-5.137-42.452-13.73-69.175-45.795-26.723-32.066 58.562-39.87 9.034-114.162s12.972-120.282-20.047-147.405c-33.019-27.122-9.434 69.575-16.51 147.405s-54.834 123.938-54.834 123.938l-57.204 81.95 175.718 91.281 272.588-35.377-10.406-93.16s-38.126 11.792-119.494 37.256Z" class="colorcc1717 svgShape"/></g><path fill="#ff8a65" d="M1946.33 1208.29s13.751-23.586 0-31.84c-13.75-8.255-22.805 40.38-22.805 40.38l43.985 25.657c3.891-12.971-21.18-34.198-21.18-34.198Z" class="colorff8a65 svgShape"/><path fill="#e54f2c" d="M1948.85 1207.839a56.668 56.668 0 0 0 4.578-11.893c2.482-10.004.384-17.338-6.069-21.212a7.624 7.624 0 0 0-7.318-.528c-11.262 5.07-17.777 38.467-18.482 42.258a2 2 0 0 0 3.931.732c1.814-9.732 8.258-35.771 16.194-39.343a3.646 3.646 0 0 1 3.617.311c11.897 7.142-.571 28.9-.7 29.118l-.842 1.45 1.278 1.084c6.695 5.671 23.438 22.495 20.557 32.096a2 2 0 1 0 3.832 1.15c1.818-6.063-1.38-14.078-9.51-23.82a114.68 114.68 0 0 0-11.065-11.403Z" class="colore54f2c svgShape"/><path fill="#cc1717" d="M2129.021 1080.223a1007.17 1007.17 0 0 0-36.769 9.505l14.293 37.901 54.15 145.565s40.99 30.33 30.755-44.74c-7.783-57.24-45.141-121.132-62.429-148.23ZM2411.025 1153.95l-39.764-82.641c-16.014-19.86-31.439-26.486-55.731-31.133 16.297 35.873 59.15 133.207 55.967 158.75-2.783 22.335 22.877 0 38.042-14.906 6.226-6.084 10.684-10.943 10.684-10.943l-9.198-19.104Z" class="colorcc1717 svgShape"/><path fill="#b70000" d="M2108.974 1085.224c-48.245-10.513-48.245 14.052-48.245 14.052s79.629 166.52 84.345 257.716c4.717 91.194 34.592 30.66 34.592 30.66s-31.305-293.845-70.692-302.428ZM2388.505 1069.256c-42.729-24.748-59.469-27.036-59.469-27.036s79.63 166.521 84.346 257.716c4.717 91.194 34.59 30.66 34.59 30.66s-7.87-231.454-59.468-261.34Z" class="colorb70000 svgShape"/><path fill="#b70000" d="m2130.923 1593.614 212.264 79.414 183.962-122.641v-267.378l-388.996 24.126-7.23 286.479z" class="colorb70000 svgShape"/><path fill="#910000" d="m2345.153 1727.273 199.291-163.729 10.614-321.057-215.801 36.765 5.896 448.021z" clip-path="url(#k)" class="color910000 svgShape"/><path fill="#910000" d="m2159.566 1242.487-34.932 13.876v46.134l213.836 73.362 201.258-99.04v-48.365l-117.925-74.292-262.237 88.325z" class="color910000 svgShape"/><g clip-path="url(#l)"><path fill="#7a0000" d="m2114.644 1253.106-4.16 71.457 221.697 75.833 227.594-106.494v-75.471l-220.518 109.905-224.613-75.23z" class="color7a0000 svgShape"/></g><path fill="#ffffff" d="M2188.274 1492.786c-2.836 16.588 11.017 19.852 25.85 18.873 15.364-.98 31.788-6.53 31.788-6.53l4.428-59.78 1.184-15.813-60.19-4.387s3.755 27.851-3.06 67.637Z" class="colorfff svgShape"/><path fill="#d3d3d3" d="M2214.288 1510.577a23.08 23.08 0 0 0-.164 1.082c15.364-.98 31.788-6.53 31.788-6.53l4.428-59.78-32.992-2.408s3.755 27.85-3.06 67.636Z" class="colord3d3d3 svgShape"/><path fill="#ffffff" d="M2222.96 1520.274c-5.782 33.776 57.638 12.344 57.638 12.344l5.61-75.593-60.188-4.387s3.748 27.85-3.06 67.637Z" class="colorfff svgShape"/><path fill="#910000" d="m2222.287 1492.582-42.621-14.563v85.526l108.038 36.668 6.741-98.4-51.75-4.852a88.703 88.703 0 0 1-20.408-4.379Z" class="color910000 svgShape"/></svg>