<svg xmlns="http://www.w3.org/2000/svg" data-name="3" viewBox="0 0 4680 3120"><defs><clipPath id="a"><path fill="none" d="M2430.84 1647.55c-62.219-38.198-119.186-73.466-178.152-116.515-10.661-7.783-22.396-17.908-21.647-31.086.573-10.087 9.21-18.612 19.065-20.836s20.378 1.048 28.577 6.952c-9.636-2.883-19.612-7.194-25-15.687s-3.534-22.058 5.814-25.77c3.914-1.554 8.293-1.162 12.483-.744l27.55 2.742c-5.844-3.697-11.925-7.64-15.283-13.683s-2.864-14.83 2.923-18.614c2.554-1.67 5.7-2.132 8.745-2.346 22.3-1.57 44.261 8.112 61.573 22.256s30.618 32.502 43.238 50.954a236.079 236.079 0 0 1 126.67-82.268c8.242-2.082 20.55-.798 20.596 7.702.016 3.097-1.903 5.828-3.741 8.32l-22.327 30.28c13.541-16.918 43.274-16.619 56.472.567l-29.558 26.732a69.592 69.592 0 0 1 59.959 12.924c2.44 1.96 4.84 4.228 5.806 7.205 3.49 10.741-11.914 16.725-23.105 18.242a179.867 179.867 0 0 0-100.92 49.38c25.562-21.129 62.635-27.334 93.684-15.68a68.699 68.699 0 0 1-33.736 27.041 45.39 45.39 0 0 1 36.402 7.763c3.217 2.39 6.292 5.567 6.704 9.554.83 8.033-8.719 12.649-16.493 14.835l-141.08 39.667Z"/></clipPath><clipPath id="b"><ellipse cx="2273.234" cy="1567.147" fill="none" rx="88.536" ry="81.328"/></clipPath><clipPath id="c"><path fill="none" d="M2492.607 1413.698c-6.411 31.976-42.936 145.22-70.336 198.212-27.4 52.964-40.195 73.049-37.455 93.16 2.74 20.085-137.767-36.067-137.767-36.067s24.796-59.531 52.854-113.975c3.206-6.22 6.439-12.467 9.672-18.687 12.193-23.345 24.468-46.388 35.182-65.404 3.754-6.658 7.315-12.85 10.631-18.358a251.13 251.13 0 0 1 13.919-21.509c6.357-8.384 13.755-18.988 21.756-30.14 4.63-6.466 9.48-13.124 14.412-19.646 24.66-32.414 52.115-61.513 71.596-47.95 30.14 21.016 21.92 48.416 15.536 80.364Z"/></clipPath><clipPath id="d"><path fill="none" d="M2874.372 1252.504s-118.174 75.972-126.04 128.486-52.06 278.405-52.06 278.405l58.994 15.07s-2.825 26.03 30.055 83.57 39.73 90.42 39.73 90.42 27.4 221.94 16.44 361.68 32.88 361.68 32.88 361.68l312.36 41.1-106.86-1399.456Z"/></clipPath><clipPath id="e"><path fill="none" d="M2875.285 828.26s67.587-10.96 96.813 43.84-.286 354.023-127.096 420.872c-96.67 92.422-97.368 63.196-102.956 123.476l-5.588 60.28-25.573 7.306-12.787-31.053v42.013s-54.8 23.747-58.453-16.44 45.666-60.28-14.614-120.56-115.08-53.43-80.373-144.535 36.533-87.451 20.093-156.865-21.006-122.387 10.96-139.74c-10.96-89.488 211.894-183.58 299.574-88.593Z"/></clipPath><clipPath id="f"><path fill="none" d="M2585.301 997.684s0 35.62 24.66 90.42-12.33 86.31-12.33 86.31 54.8 45.21 87.68 69.87 120.56 36.99 135.63 16.44c17.81 31.51 41.1 35.62 39.73 90.42s9.59 52.06 9.59 52.06 65.76-135.63 53.43-215.09c-30.14-34.25-60.28-87.68-60.28-87.68s58.91-36.99 23.29-78.09-53.43 34.25-53.43 34.25-8.22-65.76-69.87-79.46l-6.85-23.29-4.11 20.55s-89.963 6.393-108.23 18.723c-5.023-21.006-8.22-31.966-8.22-31.966l-.456 34.707-30.14 14.156-10.96-23.747 4.566 26.03-7.763 1.827Z"/></clipPath><clipPath id="g"><path fill="none" d="M2600.603 1174.921c15.695 2.307 90.973 8.79 163.748-63.701 28.313 42.013 27.135 46.777 59.33 67.316s12.33 112.328-58.91 114.383-103.894-56.855-121.245-76.035c-14.367-15.882-36.41-34.583-43.565-40.544a.808.808 0 0 1 .642-1.419Z"/></clipPath><clipPath id="h"><path fill="none" d="M3023.702 1716.935s-54.8-38.36-98.64-19.18c-34.25 112.34-45.21 154.81-45.21 154.81l-353.46-19.18s-58.91-31.4-76.72-60.91-73.98 6.11-112.34-34.99-32.196 40.415 4.794 46.58 45.21 26.715 19.865 30.14-47.265 11.645-69.185 14.385-94.53-6.165-114.395 17.125 112.34 16.44 112.34 16.44l39.868-1.441a2.497 2.497 0 0 1 .886 4.862c-14.017 4.674-33.597 10.957-43.494 13.019-16.44 3.425-91.79-17.125-114.395 0-12.83 9.72-6.02 13.922 2.267 15.74a21 21 0 0 1 13.044 9.576c1.516 2.382 4.354 5.337 9.35 8.934 17.124 12.33 46.58 28.085 46.58 28.085a60.34 60.34 0 0 0 30.824 15.755c19.18 3.425 73.295 8.22 97.955 3.425s129.465-21.92 129.465-21.92 440.455 102.75 456.895 89.735 119.968-264.574 119.968-264.574Z"/></clipPath><clipPath id="i"><path fill="none" d="m3102.662 479.912 71.019 1847.004 365.708 255.806q-26.962 20.304-58.06 40.58-24.414 15.946-51.54 31.838l-321.868-273.424-87.077-1935.154c18.824 6.686 63.376 24.99 81.761 32.579Z"/></clipPath><clipPath id="j"><path fill="none" d="M1501.56 1373.722s-391.821-55.89-452.101-3.83c-22.834 50.94-8.22 89.913-8.22 89.913s-68.5 699.384-32.88 747.79 131.52 105.369 131.52 105.369l427.68 24.063Z"/></clipPath><clipPath id="k"><path fill="none" d="M1482.38 1394.272s-97.271 31.51-137.001 58.91-126.04 75.35-119.19 223.31 30.14 237.01 53.43 369.9 46.58 216.46 101.38 243.86c-4.11 69.87-27.4 82.2 9.59 101.38-8.22 61.65-28.77 47.95 4.11 69.87s412.37 34.25 489.09-63.02c21.92-34.25 41.1-34.25 24.66-68.5s-19.18-110.97-19.18-110.97 101.38-4.11 160.29-64.39 20.55-137 20.55-137l-153.44-27.4s-19.18-308.25-73.98-393.19-52.06-157.55-176.73-171.25-183.58-31.51-183.58-31.51Z"/></clipPath><clipPath id="l"><path fill="none" d="M1501.56 1373.722s-15.528-7.307-26.488 11.873l-10.96 19.18s111.427 48.407 146.134 142.48c27.4-67.586 44.753-87.45 44.753-87.45s46.461 4.337 66.614 19.864c-25.514-56.627-91.204-102.294-91.204-102.294Z"/></clipPath><clipPath id="m"><path fill="none" d="M1772.82 1050.402s25.573 17.353 10.96 58.453-11.874 51.147 8.22 72.154-111.428 189.973-143.394 175.36c0 38.36-10.047 73.98 6.393 84.94-100.467-41.1-168.967-55.714-168.967-55.714s52.974-100.466 31.054-149.786c-57.54-23.747-60.28-63.934-49.32-89.507s39.273-61.193 73.066-21.007 53.887-44.753 53.887-44.753 3.654 21.92 24.66 13.7 29.227-52.06 29.227-52.06 59.367 25.573 124.213 8.22Z"/></clipPath><clipPath id="n"><path fill="none" d="M1624.165 1032.437s63.086 37.025 148.284 18.837c83.723-17.873 92.354-35.539 101.75-24.619 11.848 13.77 15.527-16.44-17.353-18.267s-69.413-7.306-91.333-18.266c-32.88-56.627-125.127-143.394-252.08-69.414s-75.807 196.367-60.28 224.68c26.842-20.018 55.088-97.424 171.012-112.95Z"/></clipPath><clipPath id="o"><path fill="none" d="M1822.14 2024.472s-6.85-27.4 26.03-27.4 75.35-2.74 97.27-26.03 26.03-46.58 46.58-69.87 47.95-30.14 65.76-53.43 20.55 30.14-6.85 57.54-10.96 41.92-10.96 41.92 32.88 14.935 93.844 12.88 176.73 57.54 171.25 67.815-85.624-10.275-110.285-11.645a160.791 160.791 0 0 0-45.21 4.11s74.665 15.07 88.365 17.125 106.175 38.36 98.64 50.005-47.265 9.59-47.265 9.59 29.455 10.96 33.565 23.29-58.91 18.495-91.79 7.535-85.625-12.33-89.05-.685 37.675 45.21 61.65 57.54 46.58 44.525 26.03 44.525-97.27-28.085-108.915-47.95-151.385-3.425-185.635-25.345c-68.486 12.33-87.483 8.13-87.483 8.13Z"/></clipPath><clipPath id="p"><path fill="none" d="M1581.02 1145.389s124.212 54.8 210.98 35.62c20.093 13.7 10.96 31.966 10.96 31.966s-25.574 53.887-32.88 78.547-40.924 110.35-115.906 65.679-112.428-104.952-112.428-104.952 11.873-91.334 39.273-106.86Z"/></clipPath></defs><path fill="#e8eff1" d="M3495.083 748.017c-59.513-60.91-137.657-124.505-239.202-191.142a1062.104 1062.104 0 0 0-153.275-83.214q-12.906-5.754-25.948-11.152-27.58-11.385-55.814-21.427a1281.164 1281.164 0 0 0-136.809-40.113c-104.914-24.742-214.432-37.538-325.621-40.36-418.7-10.66-861.128 120.039-1171.954 288.11-152.782 82.612-273.78 174.237-344.5 262.547-301.4 376.285 75.542 665.903 75.542 665.903-83.214 309.456-91.599 526.793-53.184 678.507 47.868 189.032 168.4 276.165 307.346 312.634 184.293 48.36 400.972 7.562 523.34-2.822 10.056-.85 20.688-1.206 31.84-1.124 160.262 1.069 431.742 93.188 716.318 148.81 47.84 9.343 96.064 17.673 144.179 24.33q33.168 4.604 66.226 8.112 36.948 3.904 73.624 6.192c110.202 6.768 217.419 1.534 315.84-23.263h.027c52.772-13.289 103.024-32.222 149.823-57.924q19.07-10.48 36.908-20.96 27.126-15.907 51.54-31.84 31.152-20.303 58.06-40.579c37.1-27.948 68.418-55.896 94.75-83.816a628.742 628.742 0 0 0 4.164-4.466c266.794-289.235-5.672-576.031-64.582-825.81-61.403-260.327 292.304-535.56-78.638-915.133Z" class="colore8eff1 svgShape"/><path fill="#9fbbc1" d="M1895.005 2565.488c154.316-13.07 443.743 88.2 748.157 147.686 47.84 9.343 96.064 17.673 144.179 24.33v-448.948a32.977 32.977 0 0 0-32.88-32.88H1064.318c111.381 439.825 616.09 328.005 830.687 309.812Z" class="color9fbbc1 svgShape"/><path fill="#b6cdd3" d="M2787.341 2737.505q33.168 4.603 66.226 8.11 36.949 3.905 73.624 6.193c110.202 6.768 217.419 1.534 315.84-23.263h.027c52.772-13.289 103.024-32.222 149.823-57.923q19.07-10.481 36.908-20.961 27.126-15.906 51.54-31.84 31.154-20.303 58.06-40.579L3076.657 462.51q-27.578-11.384-55.813-21.427a1281.21 1281.21 0 0 0-136.809-40.113c-104.914-24.742-214.432-37.538-325.621-40.36l68.253 1895.067 16.495 457.498c47.84 9.343 96.064 17.673 144.179 24.33Z" class="colorb6cdd3 svgShape"/><path fill="#7c7624" d="M2262.406 1478.973a61.92 61.92 0 0 0 16.278 7.092 40.848 40.848 0 0 0-16.278-7.092Z" class="color7c7624 svgShape"/><path fill="#7c7624" d="M2250.106 1479.113c-9.856 2.224-18.492 10.749-19.065 20.836-.749 13.178 10.986 23.303 21.647 31.086q88.45 64.573 181.875 121.935l1.496-5.533 141.08-39.667c7.774-2.186 17.323-6.802 16.493-14.835-.412-3.987-3.487-7.164-6.704-9.554a45.39 45.39 0 0 0-36.402-7.762 68.699 68.699 0 0 0 33.736-27.042c-31.05-11.654-68.122-5.449-93.684 15.68a179.867 179.867 0 0 1 100.92-49.38c11.19-1.517 26.594-7.5 23.105-18.242-.967-2.977-3.367-5.245-5.806-7.205a69.592 69.592 0 0 0-59.959-12.924l29.558-26.732c-13.198-17.186-42.931-17.485-56.473-.568l22.328-30.278c1.838-2.493 3.757-5.224 3.74-8.32-.044-8.5-12.353-9.785-20.594-7.703a236.08 236.08 0 0 0-126.67 82.268c-12.621-18.452-25.927-36.81-43.239-50.954s-39.273-23.827-61.573-22.256c-3.045.214-6.19.676-8.745 2.347-5.787 3.783-6.28 12.57-2.923 18.613s9.44 9.986 15.282 13.683l-27.548-2.742c-4.19-.418-8.57-.81-12.484.744-9.348 3.712-11.203 17.277-5.814 25.77a28.978 28.978 0 0 0 8.723 8.595 40.848 40.848 0 0 1 16.278 7.092 61.92 61.92 0 0 1-16.278-7.092 30.638 30.638 0 0 0-12.3.14Z" class="color7c7624 svgShape"/><g clip-path="url(#a)"><path fill="#605814" d="M2388.065 1494.447q.15.377.296.756 4.745 5.427 9.287 11.026ZM2356.849 1456.066l31.216 38.38a82.485 82.485 0 0 0-31.216-38.38Z" class="color605814 svgShape"/><path fill="#605814" d="M2303.952 1501.427c-4.54 1.654-9.531 1.148-14.36.992a93.683 93.683 0 0 0-26.335 2.908c-2.422.624-4.979 1.45-6.528 3.413-2.37 3.004-1.38 7.625 1.114 10.526s6.107 4.538 9.53 6.25c41.66 20.835 67.77 62.823 91.803 102.726 8.347 13.86 16.854 27.903 28.639 38.989 2.565 2.413 5.684 4.814 9.194 4.52 2.893-.243 5.282-2.266 7.444-4.204 19.113-17.135 38.185-35.635 62.355-44.28 19.277-6.896 40.217-6.92 60.475-9.879 4.101-.599 8.307-1.366 11.8-3.598 3.492-2.23 6.132-6.279 5.518-10.377-.807-5.378-6.548-8.53-11.86-9.691-5.312-1.16-11.068-1.264-15.646-4.198a5.117 5.117 0 0 1-2.486-3.012c-.4-1.921 1.056-3.695 2.467-5.06a65.617 65.617 0 0 1 20.803-13.576c-7.373-4.435-16.784-3.273-25.058-.912-8.274 2.36-16.489 5.806-25.088 5.508s-17.874-5.89-18.66-14.457c-.488-5.313 2.34-10.362 5.609-14.578 14.299-18.445 37.529-27.41 60.094-33.367 6.49-1.713 13.749-3.777 17.025-9.636-3.017-4.51-9.373-4.84-14.794-5.068-5.422-.228-11.946-1.658-13.66-6.806-1.305-3.922.995-8.173 3.929-11.085s6.578-5.123 9.067-8.422a5.075 5.075 0 0 0 1.295-3.673c-.386-2.485-3.448-3.375-5.937-3.732l-23.255-3.335c-2.981-.428-6.65-1.495-7.11-4.471a7.144 7.144 0 0 1 .759-3.667l8.437-20.997c-22.57 3.824-42.274 17.566-58.914 33.287-16.638 15.72-31.036 33.73-48.129 48.957-1.744 1.554-3.772 3.171-6.104 3.039-3.97-.226-5.735-4.962-6.838-8.782a79.448 79.448 0 0 0-2.186-6.476 374.03 374.03 0 0 0-60.31-55.363c-9.146-6.706-18.961-13.147-30.125-15.14-3.077-.55-7.372.159-7.596 3.276-.129 1.795 1.318 3.286 2.739 4.39 10.742 8.351 26.21 9.775 35.341 19.862a5.42 5.42 0 0 1 1.484 2.51c.73 3.858-5.135 4.89-9 4.196-14.897-2.67-30.85-3.799-44.626 2.465-1.31.596-2.708 1.384-3.163 2.749-.846 2.54 2.003 4.666 4.41 5.837l24.631 11.981c3.86 1.877 8.142 4.26 9.135 8.435 1.118 4.7-2.79 9.371-7.329 11.026Z" class="color605814 svgShape"/></g><ellipse cx="2273.234" cy="1567.147" fill="#c92040" rx="88.536" ry="81.328" class="colorc92040 svgShape"/><g clip-path="url(#b)"><ellipse cx="2314.334" cy="1544.77" fill="#db3159" rx="88.536" ry="81.328" class="colordb3159 svgShape"/></g><path d="M2283.542 1521.072c.906-1.703-1.682-3.22-2.59-1.514-6.756 12.702-22.935 18.617-36.229 12.862-1.754-.76-3.283 1.824-1.514 2.59 14.743 6.382 32.745.33 40.333-13.938Z" fill="#000000" class="color000 svgShape"/><path fill="#f38e1b" d="M2492.607 1413.698c6.384-31.948 14.604-59.348-15.535-80.364-19.482-13.563-46.937 15.536-71.597 47.95-4.932 6.522-9.781 13.18-14.412 19.646-8.001 11.152-15.4 21.756-21.756 30.14a251.136 251.136 0 0 0-13.92 21.51c-3.315 5.507-6.877 11.7-10.63 18.357-10.714 19.016-22.989 42.06-35.182 65.404a6033.706 6033.706 0 0 0-9.672 18.687c-28.058 54.444-52.992 105.27-52.992 105.27s140.645 64.857 137.905 44.772c-2.74-20.112 10.055-40.195 37.455-93.16 27.4-52.992 63.924-166.236 70.336-198.212Z" class="colorf38e1b svgShape"/><g clip-path="url(#c)"><path fill="#e27c17" d="M2352.822 1695.115c-12.947-1.6-25.592-5.113-38.513-6.91-23.649-3.291-47.675-.78-71.419 1.732-2.099.223-4.588.723-5.38 2.68-.761 1.885.558 3.932 1.908 5.452 5.454 6.138 12.508 10.619 19.672 14.63a231.79 231.79 0 0 0 95.672 28.798c17.094 1.272 35.114.423 50.012-8.054 22.779-12.96 32.742-40.056 40.632-65.048 26.19-82.968 48.666-167.056 71.32-251.055a454.162 454.162 0 0 0 9.863-45.35c2.332-14.342 4.533-33.819-6.738-44.995-11.344-11.25-29.979-8.418-45.538-4.796 11.85 26.928 5.967 84.611-21.158 96.591a10.65 10.65 0 0 0-5.137 4.43c-5.33 9.636 8.519 14.278 12.396 22.667 2.716 5.878.026 12.828-3.523 18.243s-8.077 10.493-9.435 16.824c-1.082 5.046 0 10.272.125 15.432.713 29.54-28.764 51.132-35.972 79.788-3.924 15.601-1.835 34.394-13.664 45.296-4.408 4.062-10.25 6.371-14.446 10.652s-5.995 12.12-1.337 15.892c-9.303-8.876-22.947-12.708-35.593-10.688a5.482 5.482 0 0 0-2.351 9.9l9.493 6.646c1.274.891 2.639 1.91 3.017 3.419.66 2.63-1.937 4.837-2.986 7.338-2.104 5.015 2.176 10.198 5.712 14.329 3.537 4.131 6.51 10.77 2.543 14.491-2.345 2.2-5.984 2.06-9.175 1.666Z" class="colore27c17 svgShape"/></g><path fill="#dd6e00" d="M2405.475 1381.284c-4.932 6.522-9.781 13.18-14.412 19.646 14.11 7.042 32.99 16.276 44.004 20.988 14.193 6.084-1.836-34.907-29.592-40.634Z" class="colordd6e00 svgShape"/><path fill="#ffc897" d="M2402.278 1384.938c-4.932 6.52-9.781 13.18-14.412 19.645 14.11 7.042 32.99 16.276 44.004 20.989 14.194 6.083-1.836-34.908-29.591-40.634Z" class="colorffc897 svgShape"/><path fill="#dd6e00" d="M2355.388 1452.58c-3.316 5.507-6.878 11.7-10.631 18.357 14.302 7.151 35.839 17.728 47.894 22.907 15.455 6.63-4.904-42.58-37.263-41.265Z" class="colordd6e00 svgShape"/><path fill="#ffc897" d="M2353.818 1455.776c-3.315 5.507-6.877 11.7-10.631 18.358 14.302 7.151 35.84 17.728 47.895 22.906 15.454 6.631-4.905-42.58-37.264-41.264Z" class="colorffc897 svgShape"/><path fill="#dd6e00" d="M2309.575 1536.34a6033.706 6033.706 0 0 0-9.672 18.688c14.303 7.124 35.428 17.509 47.32 22.605 15.535 6.658-5.07-42.963-37.648-41.292Z" class="colordd6e00 svgShape"/><path fill="#ffc897" d="M2308.662 1538.624a6098.78 6098.78 0 0 0-9.673 18.687c14.303 7.124 35.429 17.509 47.32 22.605 15.536 6.658-5.069-42.963-37.647-41.292Z" class="colorffc897 svgShape"/><path fill="#ce9e6a" d="M2120.871 2010.115s-4.11 56.17 0 106.86 53.43 64.39 106.86 82.2 82.2 19.18 143.85-20.55 127.41-49.32 142.48-124.67c15.07-75.35-16.44-128.78 10.96-176.73 27.4-47.95 16.44-161.66 0-215.09-16.44-53.43 15.07-152.07-23.29-179.47-38.36-27.4-35.62 135.996-35.62 135.996s-73.98 36.623-104.12 37.993c-30.14 1.37-171.25-65.76-171.25-65.76s-7.389-42.978 14.531-75.858c-17.81-26.03-52.891-31.002-62.48 29.278-9.591 60.28 4.11 156.18 0 243.86-4.111 87.68-21.92 221.94-21.92 221.94Z" class="colorce9e6a svgShape"/><path fill="#e54f2c" d="M2838.635 1960.795c20.21-36.534 34.823-237.467 34.823-237.467l-154.308-87.68-64.892 225.076h-254.935l15.642 63.537s403.459 73.067 423.67 36.534Z" class="colore54f2c svgShape"/><path fill="#ffc846" d="m2874.371 2571.815 312.36 41.1-106.86-1399.456-205.5 39.045s-118.173 75.972-126.04 128.486c-7.866 52.514-52.06 278.405-52.06 278.405l58.995 15.07s-2.824 26.03 30.055 83.57 39.73 90.42 39.73 90.42 27.4 221.94 16.44 361.68 32.88 361.68 32.88 361.68Z" class="colorffc846 svgShape"/><g clip-path="url(#d)"><path fill="#ffffff" d="m2780.153 1505.307 59.242-62.94-24.886-82.774-84.129-19.835-59.241 62.94 24.886 82.773Zm-48.443-161.126 79.633 18.776 23.556 78.35-56.077 59.577-79.631-18.776-23.556-78.35ZM3066.602 1589.067l-24.886-82.774-84.129-19.836-59.241 62.94 24.886 82.774 84.129 19.835Zm-140.204 39.74-23.556-78.35 56.075-59.577 79.633 18.776 23.556 78.35-56.076 59.577ZM3129.58 2254.12l-24.885-82.775-84.13-19.835-59.24 62.939 24.885 82.775 84.128 19.835Zm-140.204 39.74-23.556-78.35 56.076-59.577 79.633 18.776 23.555 78.35-56.076 59.577ZM2944.799 2552.188l-24.886-82.775-84.128-19.835-59.242 62.939 24.886 82.774 84.129 19.836Zm-140.204 39.74-23.556-78.351 56.076-59.576 79.632 18.775 23.556 78.352-56.075 59.575ZM2858.157 1886.11l59.243-62.939-24.887-82.774-84.127-19.836-59.243 62.94 24.887 82.774Zm-48.441-161.125 79.63 18.775 23.558 78.351-56.077 59.576-79.632-18.775-23.556-78.351ZM2858.157 2117.346l59.243-62.939-24.887-82.775-84.127-19.835-59.243 62.94 24.887 82.774Zm-48.441-161.126 79.63 18.776 23.558 78.351-56.077 59.576-79.632-18.776-23.556-78.35Z" class="colorfff svgShape"/></g><path fill="#0c1b3d" d="M2625.031 1357.994c60.28 60.28 10.96 80.374 14.614 120.56 3.653 40.187 58.453 16.44 58.453 16.44v-42.013l12.787 31.053 25.573-7.306 5.588-60.28c5.589-60.28 6.285-31.054 102.956-123.476 126.81-66.85 156.323-366.071 127.096-420.871-29.227-54.8-96.813-43.84-96.813-43.84-87.68-94.987-310.534-.895-299.574 88.593-31.966 17.354-27.4 70.327-10.96 139.74 16.44 69.414 14.613 65.76-20.093 156.865s20.093 84.255 80.373 144.535Z" class="color0c1b3d svgShape"/><g clip-path="url(#e)"><path fill="#020c19" d="M2583.015 1279.325c10.201 9.342 23.385 14.586 36.142 19.932 18.3 7.67 36.672 16.142 51.39 29.45 14.718 13.308 25.477 32.3 24.51 52.118-.866 17.754-10.725 33.664-20.572 48.463s-20.278 30.138-22.554 47.767 6.67 38.147 23.922 42.43c9.048 2.246 18.547-.252 27.408-3.148a299.636 299.636 0 0 0 39.152-15.935c10.051-4.944 20.161-10.747 26.65-19.877 15.965-22.463 4.092-54.314 12.291-80.625 5.638-18.092 20.217-31.816 34.81-43.907 55.568-46.05 120.679-82.263 164.88-139.314 40.32-52.044 60.032-118.84 58.444-184.658-.76-31.483-6.34-63.266-20.25-91.519-14.854-30.17-38.795-55.332-66.466-74.441-13.63-9.413-30.33-17.738-46.194-12.974-10.776 3.236-18.904 11.912-28.47 17.835a61.63 61.63 0 0 1-36.048 8.863c-5.533-.086-15.65-2.583-17.733-3.806-43.754-26.05-62.254-30.082-112.865-24.472-20.192 2.237-41.099 5.815-57.618 17.64s-27.175 34.163-19.592 53.01c1.617 4.02 4.036 8.212 2.923 12.399-.737 2.768-2.912 4.91-5.175 6.666-16.707 12.961-44.12 14.558-51.423 34.403-5.587 15.18 10.643 28.777 13.467 44.705 21.063 118.795-17.96 202.331-23.897 221.834-4.028 13.232 2.668 27.82 12.868 37.161Z" class="color020c19 svgShape"/></g><path fill="#ff8a65" d="M2585.301 997.684s0 35.62 24.66 90.42c24.66 54.8-12.33 86.31-12.33 86.31s54.8 45.21 87.68 69.87c32.88 24.66 120.56 36.99 135.63 16.44 17.81 31.51 41.1 35.62 39.73 90.42-1.37 54.8 9.59 52.06 9.59 52.06s65.76-135.63 53.43-215.09c-30.14-34.25-60.28-87.68-60.28-87.68s58.91-36.99 23.29-78.09-53.43 34.25-53.43 34.25-8.22-65.76-69.87-79.46l-6.85-23.29-4.11 20.55s-89.963 6.393-108.23 18.724c-5.023-21.007-8.22-31.967-8.22-31.967l-.456 34.707-30.14 14.156-10.96-23.746 4.566 26.03-7.763 1.826Z" class="colorff8a65 svgShape"/><g clip-path="url(#f)"><path fill="#e54f2c" d="M2838.387 1330.265c3.793-.138 6.339-3.84 8.126-7.188a169.866 169.866 0 0 0 19.432-92.012c-1.395-18.752-6.252-37.888-18.044-52.535-7.06 4.153-8.306 13.616-9.284 21.749a204.199 204.199 0 0 1-17.91 62.379l-1.757-.346a192.753 192.753 0 0 0 10.46 58.57c1.516 4.4 4.326 9.552 8.977 9.383ZM2870.254 1048.194c2.262-4.34-2.07-9.163-6.221-11.756a7.131 7.131 0 0 0-3.63-1.382c-2.866-.005-4.652 3.042-5.697 5.71a90.018 90.018 0 0 0-5.649 23.012l-.024 14.604c5.275-1.363 10.707-2.801 15.031-6.115s7.295-9.023 5.758-14.25c-.669-2.276-2.143-4.593-1.366-6.834a24.005 24.005 0 0 1 1.798-2.989Z" class="colore54f2c svgShape"/></g><path d="M2675.284 1042.15a2.007 2.007 0 0 0 1.921-1.44c.086-.29 9.279-29.007 71.146-29.61a2 2 0 0 0-.02-4h-.02c-65.152.635-74.581 31.207-74.95 32.508a2 2 0 0 0 1.923 2.541ZM2715.525 1090.77c8.729-2.023 13.727-12.626 11.165-23.683-2.563-11.056-11.717-18.379-20.446-16.356-8.728 2.024-13.727 12.627-11.164 23.683 2.563 11.056 11.716 18.38 20.445 16.356Z" fill="#000000" class="color000 svgShape"/><path fill="#f4af25" d="M2765.519 1619.06a471.745 471.745 0 0 0 15.977-82.735c.196-1.92-2.806-1.906-3 0a467.232 467.232 0 0 1-15.87 81.938 1.501 1.501 0 0 0 2.893.797ZM2906.151 1675.715l58.867-216.339a1.501 1.501 0 0 0-2.892-.797l-58.867 216.339a1.501 1.501 0 0 0 2.892.797Z" class="colorf4af25 svgShape"/><path fill="#ffffff" d="m2765.698 1120.918 68.921-62.846a2 2 0 0 0-2.695-2.956l-68.92 62.846a2 2 0 0 0 2.694 2.956ZM2835.897 1215.46a2 2 0 0 0 1.95-1.572l24.777-113.026a2 2 0 1 0-3.907-.856l-24.775 113.025a2.001 2.001 0 0 0 1.955 2.429Z" class="colorfff svgShape"/><path fill="#ffffff" d="M2643.526 1216.884c17.351 19.18 50.005 78.09 121.246 76.035 71.24-2.055 91.105-93.845 58.91-114.383-32.196-20.54-31.018-25.303-59.331-67.316-72.775 72.491-148.053 66.008-163.748 63.701a.808.808 0 0 0-.642 1.42c7.154 5.96 29.198 24.66 43.566 40.543Z" class="colorfff svgShape"/><g clip-path="url(#g)"><path fill="#caeaf9" d="m2568.996 1164.382-1.261-.83c.408.299.831.57 1.26.83Z" class="colorcaeaf9 svgShape"/><path fill="#caeaf9" d="M2805.961 1258.822c-5.953 7.53-15.206 11.697-24.455 14.267-27.18 7.555-56.302 3.549-84.007 8.862-1.805.346-3.777.843-4.826 2.352-1.208 1.74-.706 4.122.076 6.09 3.281 8.262 10.577 14.48 18.74 17.998 8.162 3.52 17.168 4.6 26.052 4.894 41.997 1.39 85.276-15.48 111.642-48.198s33.159-81.409 12.675-118.097c-7.114-12.742-17.06-23.699-27.793-33.586-14.093-12.983-30.406-24.643-49.246-28.138-19.709-3.657-39.928 2.005-58.635 9.207-42.824 16.487-81.928 41.116-121.715 63.98-5.687 3.267-11.495 6.542-17.885 8.022-5.897 1.366-12.448 1.009-17.588-2.093l26.71 17.558a150.642 150.642 0 0 0 168.983-25.418c1.256 12.837-10.599 23.64-11.434 36.51-.221 3.407.442 7.035 2.676 9.617 3.572 4.128 10.19 4.325 15.096 1.932s8.496-6.774 11.906-11.036a19.599 19.599 0 0 0 30.466 22.043c3.758 7.87 2.627 17.172.44 25.614-1.626 6.274-3.858 12.536-7.878 17.62Z" class="colorcaeaf9 svgShape"/><path fill="#caeaf9" d="M2723.687 1213.565c3.764-3.512 7.306-7.676 8.261-12.735a3.502 3.502 0 0 0-.053-1.965c-.521-1.275-2.265-1.642-3.545-1.135a8.498 8.498 0 0 0-3.095 2.668c-19.24 22.652-48.862 32.719-78.384 29.293 25.953 9.09 56.71 2.634 76.816-16.126ZM2754.026 1241.43c6.852-5.096 12.19-12.732 12.9-21.24a422.624 422.624 0 0 1-109.684 34.319c24.108 5.51 49.43 3.034 73.402-3.037 8.277-2.096 16.532-4.946 23.383-10.042Z" class="colorcaeaf9 svgShape"/></g><path fill="#ba824a" d="M2339.926 1798.78c-24.523 11.29-50.553 22.88-77.405 20.14-20.961-2.138-43.456-12.604-61.787-2.275a21.11 21.11 0 0 0-9.152 9.289c-4.52 9.837 2 21.619 10.823 27.838 8.85 6.22 19.7 8.823 29.318 13.783 14.111 7.233 25.099 19.234 37.894 28.605 25.428 18.605 56.965 26.304 87.598 33.593 10.357 2.466 21.208 4.932 31.538 2.329 13.18-3.288 22.879-14.084 34.03-21.838 23.729-16.468 54.445-19.153 83.242-16.77 3.863.33 7.7.713 11.535 1.152l22.167-70.528c-25.783-.931-50.471-18.111-59.924-42.223-6.987-17.865-9.754-42.416-28.386-46.937-6.905-1.671-14.111.302-21.098 1.59a113.752 113.752 0 0 1-76.364-12.851c-7.48-4.247-14.687-9.453-23.126-11.207-8.44-1.726-18.714 1.288-21.865 9.316-2.85 7.207.959 15.208 5.096 21.729a175.317 175.317 0 0 0 28.634 34.606c3.479 3.233 7.425 7.206 6.63 11.892-.767 4.384-5.343 6.904-9.398 8.767Z" opacity=".63" class="colorba824a svgShape"/><path fill="#ff8a65" d="M2331.505 1865.576c-14.017 4.674-33.597 10.957-43.494 13.018-16.44 3.426-91.79-17.125-114.395 0-12.83 9.72-6.02 13.923 2.267 15.74a20.999 20.999 0 0 1 13.044 9.577c1.516 2.382 4.354 5.337 9.35 8.934 17.124 12.33 46.58 28.085 46.58 28.085a60.342 60.342 0 0 0 30.824 15.755c19.18 3.425 73.295 8.22 97.955 3.425 24.66-4.795 129.465-21.92 129.465-21.92s440.455 102.75 456.895 89.735c16.44-13.015 119.969-264.574 119.969-264.574l-56.264-46.416s-54.8-38.36-98.64-19.18c-34.25 112.34-45.21 154.81-45.21 154.81l-353.46-19.18s-58.91-31.4-76.72-60.91-73.98 6.11-112.34-34.99-32.195 40.415 4.795 46.58 45.21 26.715 19.865 30.14c-25.345 3.425-47.265 11.645-69.185 14.385s-94.53-6.165-114.395 17.125c-19.865 23.29 112.34 16.44 112.34 16.44l39.868-1.441a2.497 2.497 0 0 1 .886 4.862Z" class="colorff8a65 svgShape"/><g clip-path="url(#h)"><path fill="#e54f2c" d="M2934.863 1714.62c2.227-6.051 3.7-12.667 2.176-18.932s-6.743-11.979-13.181-12.33c-10.117-.552-16.208 10.803-19.422 20.411a516.762 516.762 0 0 0-15.138 55.289c-3.455 16.073-7.035 33.828-20.065 43.853-7.13 5.484-16.128 7.793-24.854 9.974l-61.805 15.444-10.54 11.78c42.783 4.833 95.966 30.501 132.048 53.991 2.567-1.59 2.869-5.143 2.85-8.163-.285-45.528-9.137-93.467 9.694-134.92 5.617-12.365 13.546-23.652 18.236-36.397ZM2170.283 1824.81c-8.347 12.33 113.325 8.805 124.314 9.819s28.675-3.773 39.274-6.85c11.577-3.361 25.427-5.001 37.446-5.937 8.177-.636 9.472-5.718 12.906-13.167 3.09-6.704-1.466-14.783-7.675-18.775-6.21-3.992-13.73-5.239-20.67-7.758-22.157-8.047-38.144-30.734-38.268-54.308l3.807-18.299c-17.61-1.537-35.555 9.874-41.631 26.474-7.172 19.594 1.424 41.96-4.142 62.07-1.108 4-105.279 22.581-105.361 26.732ZM2220.731 1878.074c20.109 2.194 40.125 6.517 60.337 5.725 20.82-.816 59.148-1.145 65.817-23.075-4.142-3.175-9.461-4.357-14.14-2.042a192.688 192.688 0 0 1-66.135 9.287c-16.77-.588-33.411-3.37-50.185-3.86-16.774-.49-34.136 1.493-48.762 9.72-4.152 2.336-8.554 6.951-6.374 11.187 18.112-9.007 39.333-9.135 59.442-6.942ZM2232.193 1938.02c4.413.397 8.716-1.239 12.95-2.545 9.9-3.053 61.024 5.075 77.913 6.621-13.463-1.778-56.515-12.766-61.716-13.108-7.386-.485-14.578 2.329-21.954 2.936a37.413 37.413 0 0 1-25.623-7.564l-4.506 1.43c3.573 4.067 8.527 6.613 13.396 8.98 3.039 1.479 6.174 2.947 9.54 3.25ZM2448.282 1976.372l121.762 8.09c9.686.644 21.945-.244 25.45-9.297-25.685-5.92-53.883-13.52-68.359-35.549-4.37-6.65-8.205-15.095-15.979-16.796-7.923-1.734-15.028 4.606-21.398 9.627a86.746 86.746 0 0 1-35.287 16.603l-16.967 15.614c-2.757 2.115-1.832 6.836.888 8.998s6.424 2.48 9.89 2.71ZM2318.8 1904.956c-33.18 4.04-111.802-2.143-144.51-9.032l-8.624-1.588c12.329 10.927 29.65 14.038 46.09 15.09 21.167 1.356 71.424 13.796 107.044-4.47Z" class="colore54f2c svgShape"/></g><path fill="#cce1e5" d="M3495.083 753.497c-59.513-60.91-137.657-124.505-239.202-191.142a1062.104 1062.104 0 0 0-153.275-83.214l-25.949-11.152q-27.578-11.384-55.813-21.427a1281.187 1281.187 0 0 0-136.809-40.113l86.886 2090.347 272.11 237.23h.027c52.772-13.29 103.024-32.223 149.823-57.925q19.07-10.48 36.908-20.96 27.126-15.906 51.54-31.84 31.154-20.303 58.06-40.579l98.914-88.283c266.794-289.234-5.672-576.03-64.582-825.809-61.403-260.327 292.304-535.56-78.638-915.133Z" class="colorcce1e5 svgShape"/><path fill="#ffffff" d="m3146.28 2343.356 335.048 279.946q31.155-20.304 58.06-40.58L3076.659 467.99Z" class="colorfff svgShape"/><path fill="#e8eff1" d="M3495.083 753.497c-59.513-60.91-137.657-124.505-239.202-191.142a1062.104 1062.104 0 0 0-153.275-83.214l436.783 2103.581c430.262-311.976 93.242-664.313 34.332-914.092-61.403-260.327 292.304-535.56-78.638-915.133Z" class="colore8eff1 svgShape"/><path fill="#b6cdd3" d="m2806.52 2496.796-2.684 5.562-16.495 34.168 66.226 214.57q36.948 3.904 73.624 6.192c110.202 6.768 217.419 1.534 315.84-23.263l-272.11-237.23Z" class="colorb6cdd3 svgShape"/><path fill="#87b6c1" d="m2803.836 2502.358-16.495 34.168 66.226 214.57q36.948 3.904 73.624 6.192l-118.067-254.875a2.925 2.925 0 0 0-5.288-.055ZM3102.606 479.14c-18.386-7.589-62.938-25.892-81.762-32.578l87.077 1935.154 321.868 273.425q27.126-15.906 51.54-31.84 31.154-20.303 58.06-40.579l-365.708-255.806Z" class="color87b6c1 svgShape"/><g clip-path="url(#i)"><path fill="#68a4ad" d="m3079.965 2407.289 360.409 347.231 180.841-171.798-418.307-279.553-122.943 104.12z" class="color68a4ad svgShape"/></g><path fill="#ffffff" d="M1064.318 2255.676c47.868 189.032 168.4 276.165 307.346 312.634 184.293 48.36 400.972 7.562 523.34-2.822 10.056-.85 20.688-1.206 31.84-1.124 160.262 1.069 431.742 93.188 716.318 148.81 47.84 9.343 96.064 17.673 144.179 24.33q33.168 4.604 66.226 8.112 36.948 3.904 73.624 6.192c110.202 6.768 217.419 1.534 315.84-23.263h.027c52.772-13.289 103.024-32.222 149.823-57.924q19.07-10.48 36.908-20.96 27.126-15.907 51.54-31.84 31.152-20.303 58.06-40.579c37.1-27.948 68.418-55.896 94.75-83.816-296.77 26.687-1025.282 43.155-1680.882-330.691C1301.849 1791.245 1335.77 997 1386.46 648.72c-152.782 82.61-273.78 174.236-344.5 262.546-301.4 376.285 75.542 665.903 75.542 665.903-83.214 309.456-91.599 526.793-53.184 678.507Z" opacity=".53" class="colorfff svgShape"/><path fill="#b70000" d="M1008.359 2207.596c35.62 48.406 131.52 105.368 131.52 105.368l427.68 24.063-66-963.305s-391.82-55.89-452.1-3.83c-22.833 50.94-8.22 89.914-8.22 89.914s-68.5 699.383-32.88 747.79Z" class="colorb70000 svgShape"/><g clip-path="url(#j)"><path fill="#a50707" d="M1012.676 1423.097c1.57 10.032 3.911 20.684 11.255 27.696 10.105 9.65 25.865 9.146 39.808 8.244a1357.63 1357.63 0 0 1 467.228 51.534c8.071 2.358 17.85 4.435 24.016-1.282 5.113-4.74 5.204-12.664 4.827-19.626a739.9 739.9 0 0 0-14.515-111.073c-2.847-13.643-6.52-28.01-16.551-37.686-8.76-8.45-21.03-11.995-32.837-14.95-118.346-29.615-241.856-29.172-363.849-28.54-24.883.128-50.653.445-73.24 10.885-22.587 10.44-41.136 33.993-37.529 58.614l-11.768-31.882a370.458 370.458 0 0 0 3.155 88.066Z" class="colora50707 svgShape"/><path fill="#a50707" d="M1130.966 2220.12c-18.408 6.725-38.905 5.488-57.912.713a165.632 165.632 0 0 1-101.743-76.75c-15.808 6.973-8.527 30.839 1.36 45.009a1207.51 1207.51 0 0 0 146.578 172.874c10.216 9.976 20.988 20.014 34.343 25.069 13.717 5.192 28.838 4.638 43.496 4.125a2875.516 2875.516 0 0 1 413.22 15.29c7.283.798 15.787 1.186 20.67-4.275 4.393-4.915 3.807-12.369 2.955-18.905q-41.627-319.147-96.863-636.322c-9.101-52.26-18.514-104.942-16.685-157.957.927-26.86 4.74-53.68 3.24-80.515-.384-6.873-1.32-14.217-5.862-19.389-4.14-4.713-10.486-6.718-16.527-8.406-90.74-25.353-184.628-111.528-275.432-86.409l-13.964 33.3c-29.69 173.396 13.799 453.225-5.48 628.084-1.999 18.129 17.079 36.692.682 44.68-9.012 4.389-20.091 3.805-28.408 9.399-20.046 13.48-6.893 44.589-10.5 68.474-2.928 19.378-18.76 35.185-37.168 41.91Z" class="colora50707 svgShape"/></g><path fill="#ffffff" d="m1066.57 1898.959 64.19 26.396 22.16-85.01 6.896-26.494-78.948-9.743-14.298 94.851z" class="colorfff svgShape"/><path fill="#dbcccc" d="m1130.76 1925.355 22.16-85.01-53.506-6.627-11.177 74.151 42.523 17.486z" class="colordbcccc svgShape"/><path fill="#ffffff" d="m1156.811 1967.934 29.061-111.493-78.944-9.751-14.314 94.844 64.197 26.4z" class="colorfff svgShape"/><path fill="#910000" d="m1064.318 2136.942 52.864 22.426c16.1 11.857 22.907-9.91 25.286-29.763l34.665-215.516c1.669-13.921-17.63-19.693-31.478-21.897l-81.337-9.96c-15.848-2.521-9.38 10.054-9.38 26.101L1031 2118.676c0 8.293 26.64 13.348 33.318 18.266Z" class="color910000 svgShape"/><path fill="#772226" d="M1368.458 2565.057c184.293 48.361 400.972 7.562 523.34-2.822 10.056-.85 20.687-1.206 31.839-1.124l-42.086-224.077-472.897 73.98Z" class="color772226 svgShape"/><path fill="#e22d2d" d="m2070.11 2017.622-153.44-27.4s-19.18-308.25-73.98-393.19c-54.8-84.94-52.06-157.55-176.73-171.25s-183.58-31.51-183.58-31.51-97.27 31.51-137 58.91c-39.73 27.4-126.041 75.35-119.19 223.31 6.849 147.96 30.139 237.01 53.429 369.9 23.29 132.89 46.58 216.46 101.38 243.86-4.11 69.87-27.4 82.2 9.59 101.38-8.22 61.65-28.77 47.95 4.11 69.87s412.37 34.25 489.09-63.02c21.92-34.25 41.1-34.25 24.66-68.5s-19.18-110.97-19.18-110.97 101.38-4.11 160.29-64.39 20.55-137 20.55-137Z" class="colore22d2d svgShape"/><g clip-path="url(#k)"><path fill="#cc1717" d="M1451.63 1632.96c-1.148-2.602-2.29-5.207-3.465-7.797l-31.833-25.718a430.361 430.361 0 0 1 35.297 33.515ZM1416.332 1599.445q-7.372-6.24-15.03-12.142Z" class="colorcc1717 svgShape"/><path fill="#cc1717" d="M1565.41 2037.672c89.46-57.636 213.58 8.42 312.832-29.972a685.983 685.983 0 0 0-255.06-5.255c-7.511 1.266-15.286 2.65-22.658.73-23.608-6.143-26.453-37.843-26.331-62.237.564-113.25-45.057-225.642-122.564-307.978a835.487 835.487 0 0 1 69.549 379.82c-38.04 6.352-70.196 38.98-75.992 77.108l61.683-45.254a155.136 155.136 0 0 0-25.543 83.273c27.511-30.79 49.374-67.872 84.085-90.235ZM1519.024 2304.086c122.828 11.52 191.406-54.924 291.135-127.544-34.48.551-76.404 39.214-108.123 52.745-104.36 44.52-143.892 50.795-256.839 61.552-38.36 3.653-58.506-11.596-69.711-1.243-3.626 3.35-5.365 8.217-6.976 12.882l-43.767 126.72c-8.725 25.263-17.459 53.049-8.073 78.074 8.473 22.594 30.558 37.902 53.814 44.343 23.256 6.44 47.853 5.347 71.943 3.939 61.533-3.597 122.997-8.921 184.018-17.619 70.768-10.087 141.916-25.066 205.42-57.883 31.99-16.532 62.475-38.26 81.676-68.722 19.2-30.462 25.288-70.93 8.5-102.786-2.299-4.363-5.845-9.02-10.777-9-3.072.014-5.782 1.895-8.28 3.684a685.87 685.87 0 0 1-350.713 125.792c-24.153 1.634-49.146 1.853-71.66-7.041-11.742-4.64-23.586-19.802-14.024-28.044 4.224-3.641 10.452-3.256 16.019-2.927a181.058 181.058 0 0 0 108.834-28.915l-110.664 13.792c-13.897 1.732-34.366-3.074-31.418-16.765a25.937 25.937 0 0 0 18.49-21.36c.585-4.812-.215-9.753.772-14.497 4.033-19.39 30.686-21.027 50.404-19.177ZM2080.557 2095.798c-6.081-2.424-12.268 2.89-16.724 7.685-19.291 20.764-39.949 40.777-64.612 54.743-24.663 13.965-53.922 21.495-81.691 15.823a92.632 92.632 0 0 1-37.164-16.79l5.283 63.729 2.894 4.942c10.138 11.77 26.43 16.871 41.962 16.534s30.54-5.484 44.93-11.336a440.129 440.129 0 0 0 66.445-33.838c17.007-10.566 33.778-22.813 43.941-40.063 10.163-17.25 12.229-40.616.241-56.651a13.533 13.533 0 0 0-5.505-4.778ZM1793.47 1585.967a180.401 180.401 0 0 0 6.35 19.995q-3.138-10.01-6.35-19.995ZM1874.758 1977.965c2.78 4.022 8.118 5.166 12.937 5.992l33.387 5.724-30.65-153.576c-7.963-39.896-15.991-80.024-30.67-117.967-17.302-44.73-44.22-71.016-59.942-112.176q36.098 115.132 60.993 233.385c8.69 41.317 16.37 83.53 12.29 125.554-.434 4.467-.896 9.372 1.655 13.064ZM1692.894 1392.668c-12.242-7.432-26.438-10.86-40.42-13.958a1339.301 1339.301 0 0 0-191.981-28.132c-23.08-1.688-51.472.082-61.873 20.755-7.786 15.475-1.141 33.983 5.54 49.965l28.707 1.234c96.958.557 138.432 105.509 192.244 159.465 9.836-4.045 18.656-70.953 39.826-77.34 21.17-6.389 43.85-2.872 65.886-1.042 4.207.35 9.186.304 11.686-3.097 2.087-2.838 1.467-6.763.753-10.212-7.652-36.956-18.108-78.053-50.368-97.638Z" class="colorcc1717 svgShape"/></g><path fill="#ffc844" d="m1630.41 1377.375-128.85-3.653s-15.528-7.307-26.488 11.873l-10.96 19.18s111.427 48.407 146.134 142.48c27.4-67.586 44.753-87.45 44.753-87.45s46.461 4.337 66.614 19.864c-25.514-56.627-91.204-102.294-91.204-102.294Z" class="colorffc844 svgShape"/><g clip-path="url(#l)"><path fill="#eab02f" d="M1639.326 1365.663c-2.627-2.81-6.567-3.898-10.31-4.79a301.358 301.358 0 0 0-93.186-7.267c-16.738 1.312-34.35 4.468-46.978 15.532l-9.355 13.33c3.357 11.465 17.083 15.643 28.72 18.348 20.597 4.79 41.285 10.68 59.26 21.82 17.974 11.14 33.144 28.222 37.845 48.84 6.904-7.26 7.524-18.549 13.222-26.788 6.084-8.799 17.297-12.9 27.992-13.049 10.696-.15 21.117 3.078 31.325 6.273a108.32 108.32 0 0 1-34.185-60.462c-.782-4.177-1.449-8.682-4.35-11.787Z" class="coloreab02f svgShape"/></g><path fill="#750e0e" d="M1738.112 1037.615s-21.92 36.533 55.964 44.754 87.253-59.08 87.253-59.08c-23.923-26.2-143.216 14.326-143.216 14.326Z" class="color750e0e svgShape"/><path fill="#601416" d="M1473.246 1241.745c30.14 30.597 107.773 38.427 107.773 38.427l84.94-271.784s-226.358.257-199.107 107.774c0 0-41.1 147.046 6.394 125.583Z" class="color601416 svgShape"/><path fill="#ff8a65" d="M1792 1181.009c-20.094-21.007-22.834-31.054-8.22-72.154 14.613-41.1-10.961-58.453-10.961-58.453-64.847 17.353-124.213-8.22-124.213-8.22s-8.22 43.84-29.227 52.06c-21.007 8.22-24.66-13.7-24.66-13.7s-20.093 84.94-53.887 44.753c-33.793-40.187-62.106-4.566-73.066 21.007s-8.22 65.76 49.32 89.507c21.92 49.32-31.054 149.786-31.054 149.786s68.5 14.614 168.967 55.714c-16.44-10.96-6.393-46.58-6.393-84.94 31.966 14.613 163.486-154.354 143.393-175.36Z" class="colorff8a65 svgShape"/><g clip-path="url(#m)"><path fill="#e54f2c" d="M1797.683 1042.65c-30.899-22.134-71.537-22.849-109.196-27.996-18.949-2.59-38.38-6.487-56.964-1.973-20.517 4.982-37.458 19.795-49.889 36.86-6.074 8.339-11.356 17.51-13.455 27.61-1.424 6.85-1.367 14.04-3.78 20.608-4.117 11.21-14.57 18.634-24.45 25.344l9.51 13.151c6.873 8.008 15.687 16.793 26.126 15.249 6.298-.932 11.513-5.674 14.629-11.226s4.467-11.892 5.777-18.122c7.983 3.748 17.284 6.35 25.533 3.232 10.296-3.892 15.477-15.127 19.631-25.32l12.038-29.538c.639-1.568 1.416-3.283 2.97-3.955 1.401-.605 3.01-.173 4.474.253 32.873 9.567 67.167 13.12 101.297 15.827 7.877.625 15.86 1.202 23.632-.227s15.429-5.106 20.069-11.502a17.991 17.991 0 0 0 3.584-13.128c-1.03-6.439-6.235-11.349-11.536-15.146ZM1505.09 1194.868c6.014 3.263 14.544.862 17.665-5.227 1.99-3.882 1.793-8.498 3.018-12.685l-.617-2.743-9.083-23.454c-1.335-3.448-2.984-7.234-6.384-8.688-2.702-1.155-5.871-.483-8.492.846a18.383 18.383 0 0 0-3.442 30.525c.685.57 1.473 1.194 1.56 2.082a3.547 3.547 0 0 1-.394 1.617c-2.534 6.356.154 14.463 6.169 17.726ZM1569.958 1291.465c.256 18.526 4.485 36.74 8.691 54.785 2.432 10.428 5.152 21.405 12.597 29.102 8.8 9.097 22.446 11.777 32.13 19.926 4.875 4.103 8.655 9.523 14.076 12.87a4.19 4.19 0 0 0 2.987.841c1.344-.297 2.108-1.685 2.67-2.942a88.617 88.617 0 0 0 6.442-50.478l-5.044-.952a187.708 187.708 0 0 1-74.549-63.152Z" class="colore54f2c svgShape"/></g><path fill="#ffffff" d="M1553.649 1133.122a2 2 0 1 0-2.348 3.238l23.11 16.762a2 2 0 1 0 2.348-3.238ZM1518.196 1234.145a2 2 0 0 0-2.22 3.328l24.66 16.44a2 2 0 1 0 2.219-3.328Z" class="colorfff svgShape"/><path d="M1678.445 1073.493c-11.258 4.195-19.779 14.018-25.325 29.196a2 2 0 1 0 3.758 1.372c5.121-14.015 12.837-23.035 22.934-26.81 15.825-5.912 32.46 3.097 32.67 3.213a2 2 0 0 0 1.942-3.497c-.744-.413-18.396-10.028-35.98-3.474ZM1673.388 1132.602c0 13.115 7.538 23.746 16.836 23.746 9.298 0 16.835-10.631 16.835-23.746s-7.537-23.747-16.835-23.747c-9.298 0-16.836 10.632-16.836 23.747Z" fill="#000000" class="color000 svgShape"/><path fill="#e22d2d" d="M1765.512 990.122c-32.88-56.627-125.126-143.394-252.08-69.414-126.953 73.98-75.806 196.367-60.28 224.68 26.843-20.018 55.09-97.424 171.012-112.95 0 0 50.015 38.057 148.655 17.964 98.64-20.094 92.247-36.533 101.38-23.747 9.134 12.787 15.527-16.44-17.353-18.266s-69.413-7.307-91.334-18.267Z" class="colore22d2d svgShape"/><g clip-path="url(#n)"><path fill="#c91b1b" d="M1887.238 998.832a611.543 611.543 0 0 0-91.88-15.122c-13.45-1.172-27.248-1.866-40.222 1.872-8.286 2.387-15.948 6.504-23.66 10.36a428.278 428.278 0 0 1-106.19 36.612l-3.931 1.9c-5.763 7.374-5.253 18.439-.229 26.335 5.024 7.896 13.786 12.85 22.881 15.057s18.594 1.946 27.934 1.345c22.167-1.428 44.18-4.706 66.334-6.317 48.869-3.556 99.6.757 145.33-16.839 8.954-3.445 17.899-7.936 23.885-15.433 5.987-7.497 8.268-18.648 3.219-26.806-4.832-7.806-14.552-10.788-23.47-12.964ZM1495.846 936.984a10.354 10.354 0 0 0-2.316-4.813c-2.586-2.55-6.86-1.87-10.303-.715-16 5.37-29.101 16.894-41.223 28.635-12.92 12.515-25.533 25.983-32.68 42.49-8.475 19.573-8.53 41.784-5.82 62.94a251.491 251.491 0 0 0 39.433 106.722c4.745 7.153 9.96 14.147 16.722 19.432 6.764 5.286 15.293 8.753 23.843 7.987 8.463-.758 16.171-5.591 21.902-11.866 5.73-6.275 9.711-13.928 13.276-21.642 14.395-31.152 23.345-65.32 43.835-92.848l8.484-14.154c-29.303-15.241-59.112-57.858-67.853-89.71-2.936-10.696-4.383-21.756-7.3-32.458Z" class="colorc91b1b svgShape"/></g><path fill="#ffc844" d="M1679.1 1503.735c-1.059-1.604-3.658-.103-2.591 1.515 35.189 53.352 48.576 116.901 56.426 179.404 2.237 17.807 4.054 35.663 5.83 53.52.19 1.904 3.192 1.923 3 0-6.295-63.278-12.918-128.127-37.7-187.334a285.845 285.845 0 0 0-24.966-47.105ZM1656.826 1565.979a15.07 15.07 0 1 0 15.07-15.07 15.07 15.07 0 0 0-15.07 15.07ZM1671.896 1633.906a15.07 15.07 0 1 0 15.07-15.07 15.07 15.07 0 0 0-15.07 15.07Z" class="colorffc844 svgShape"/><circle cx="1702.036" cy="1712.569" r="15.07" fill="#ffc844" transform="rotate(-80.783 1702.032 1712.565)" class="colorffc844 svgShape"/><path fill="#ffffff" d="M2194.78 2016.252c24.66 1.37 104.805 21.92 110.285 11.645 5.48-10.275-110.285-69.87-171.25-67.815-60.966 2.055-93.846-12.88-93.846-12.88s-16.44-14.52 10.96-41.92 24.66-80.83 6.85-57.54-45.21 30.14-65.76 53.43c-20.55 23.29-24.66 46.58-46.58 69.87-21.92 23.29-64.39 26.03-97.27 26.03s-26.03 27.4-26.03 27.4l25.542 139.65s18.997 4.2 87.483-8.13c34.25 21.92 173.99 5.48 185.636 25.345s88.364 47.95 108.915 47.95c20.55 0-2.056-32.195-26.03-44.525s-65.075-45.895-61.65-57.54 56.17-10.275 89.05.685c32.88 10.96 95.9 4.795 91.79-7.535-4.11-12.33-33.565-23.29-33.565-23.29s39.73 2.055 47.264-9.59-84.94-47.95-98.64-50.005c-13.7-2.055-88.364-17.125-88.364-17.125a160.794 160.794 0 0 1 45.21-4.11Z" class="colorfff svgShape"/><g clip-path="url(#o)"><path fill="#caeaf9" d="M2019.12 1935.069c-.238 13.75 11.022 25.515 23.794 30.615s26.912 5.065 40.656 5.573c31.388 1.161 62.56 5.528 93.666 9.89a224.813 224.813 0 0 1 24.896 4.448c10.356 2.665 20.272 6.791 30.071 11.072a931.34 931.34 0 0 1 85.191 42.528c4.37-3.21 4.663-9.977 2.115-14.764-2.548-4.787-7.173-8.054-11.64-11.13-60.562-41.701-125.917-82.756-199.246-88.223-8.464-.631-18.844-2.053-21.832-9.997-2.644-7.03 2.445-14.301 6.032-20.9 6.728-12.376 8.457-28.061 1.912-40.535-6.547-12.474-22.39-20.15-35.556-15.137l6.248 7.146a103.423 103.423 0 0 1-23.138 51.465c-9.777 11.594-22.908 22.785-23.17 37.949ZM1951.647 1949.202c3.866-3.988-1.357-11.127-6.911-11.103-5.555.023-10.14 4.068-14.474 7.54a100.872 100.872 0 0 1-37.108 18.71c-25.53 6.757-52.904 3.286-78.466 9.92-6.223 1.614-12.466 3.922-17.223 8.247-5.963 5.423-8.937 13.45-10.222 21.407-3.481 21.553 3.912 43.215 11.194 63.797l32.252 91.153c4.46 12.609 9.352 25.852 19.638 34.4 8.526-26.227 8.495-54.535 5.17-81.912s-9.837-54.267-14.046-81.523a8.602 8.602 0 0 1 .187-4.807c1.284-2.88 5.078-3.45 8.23-3.403a71.92 71.92 0 0 1 45.13 16.983c2.852 2.427 5.612 5.141 9.121 6.447 3.51 1.305 8.083.717 10.086-2.447 5.06-7.992-11.096-17.718-6.374-25.915a26.3 26.3 0 0 0 11.246 6.766 27.445 27.445 0 0 1 4.96-12.84 42.407 42.407 0 0 0 8.409 21.173c.926 1.215 2.105 2.476 3.632 2.537 3.496.14 3.86-5.049 3.053-8.453a118.248 118.248 0 0 1 .66-56.977ZM2340.096 2089.398a5.508 5.508 0 0 0-3.061-.258c-20.42 2.1-41.508.154-60.445-7.768-8.312-3.477-16.173-8.078-24.78-10.742-10.213-3.161-21.058-3.47-31.745-3.755-25.34-.675-51.148-1.293-75.513 5.7 13.12 3.426 26.954 1.624 40.51 1.99 36.188.976 70.059 17.385 105.651 24.003 15.035 2.795 54.283 14.613 61.88 1.341l-16.333-3.623a17.604 17.604 0 0 1-4.998-1.11l4.998 1.11a6.364 6.364 0 0 0 2.821-.525c2.44-1.107 3.407-5.153 1.015-6.363Z" class="colorcaeaf9 svgShape"/><path fill="#caeaf9" d="m2336.26 2096.286-4.998-1.11a17.604 17.604 0 0 0 4.998 1.11ZM2208.642 2143.624c10.331 1.278 20.26 4.706 30.428 6.936a133.27 133.27 0 0 0 50.154 1.3c8.718-1.443 17.597-3.913 24.367-9.59s10.91-15.235 8.052-23.595l-.567 8.116c-14.997 9.025-34.07 7.828-50.97 3.273-16.9-4.556-32.978-12.144-50.208-15.225-12.738-2.278-25.775-2.031-38.712-1.777l-26.66.524c-7.854.154-15.97.366-23.104 3.655s-13.075 10.52-12.308 18.339c1.159 11.81 15.019 17.021 26.241 20.879a173.624 173.624 0 0 1 87.64 67.854c.816 1.231 1.746 2.572 3.179 2.93 2.745.687 4.774-2.547 5.486-5.286 4.418-16.992-4.15-35.238-17.067-47.128-12.918-11.89-29.584-18.701-45.865-25.273 8.442-6.09 19.584-7.211 29.914-5.932ZM2065.195 2112.248c2.112 1.263 4.51 2.482 6.926 2.01 2.038-.397 3.64-1.914 5.224-3.257a43.052 43.052 0 0 1 9.297-6.004 143.418 143.418 0 0 1-36.325-6.53l-10.025-8.03a92.287 92.287 0 0 0 24.903 21.811ZM2088.526 2104.147c-.636.267-1.262.554-1.884.85 1.871.092 3.744.152 5.618.17.061-1.548-2.306-1.618-3.734-1.02ZM2064.567 2022.788c-10.516 1.736-15.647 10.278-26.164 12.014a136.689 136.689 0 0 0 36.906-2.877 6.14 6.14 0 0 0 3.087-1.319c1.998-1.95.47-5.547-1.923-6.983-3.488-2.092-7.893-1.498-11.906-.835Z" class="colorcaeaf9 svgShape"/></g><path fill="#ff8a65" d="M1839.492 2011.23h-85.853s16.44 2.739 25.574 33.792-1.827 114.167 18.266 131.52c47.321-11.344 61.193-14.613 61.193-14.613s27.4-131.52-19.18-150.7Z" class="colorff8a65 svgShape"/><path fill="#b70000" d="M1381.513 1427.573c-44.652 12.052-52.541 33.96-52.541 33.96s147.456 156.31 179.314 347.033c-.686-148.107-21.172-316.572-126.773-380.993ZM1854.56 1794.256s13.33-69.058 12.832-137.936c-.5-68.878-66.95-137.936-66.95-137.936Z" class="colorb70000 svgShape"/><path fill="#ffffff" d="M1581.02 1145.389c-27.4 15.526-39.274 106.86-39.274 106.86s37.447 60.28 112.428 104.952c74.982 44.672 108.599-41.02 115.905-65.68s32.88-78.546 32.88-78.546 9.133-18.266-10.96-31.966c-86.766 19.18-210.98-35.62-210.98-35.62Z" class="colorfff svgShape"/><g clip-path="url(#p)"><path fill="#caeaf9" d="M1589.263 1182.496c2.423-1.597 5.61-1.141 8.455-.566 26.384 5.331 51.588 15.648 78.054 20.56a197.217 197.217 0 0 0 118.85-15.26l19.263-20.078a62.488 62.488 0 0 1 21.749-13.17c-16.482 3.205-33.33-1.678-49.476-6.282-60.638-17.294-124.129-31.388-186.387-21.39-6.367 1.022-12.828 2.343-18.408 5.574-8.002 4.632-13.347 12.66-18.297 20.47-10.068 15.883-19.73 32.072-27.656 49.126-6.031 12.98-11.113 26.808-11.083 41.12.03 14.686 5.443 28.838 12.01 41.974 15.014 30.033 36.76 56.98 64.325 76.153s61.067 30.284 94.624 29.134c18.23-.624 38.973-6.927 45.869-23.815-30.175 3.22-60.285-8.973-84.911-26.706-24.627-17.734-44.807-40.794-65.746-62.76-4.869-5.109-10.063-10.734-10.752-17.758-.688-7.024 6.042-14.893 12.639-12.383-4.68-5.266-9.302-13.774-4.06-18.48a13.58 13.58 0 0 1 5.765-2.553l29.608-7.874-27.557-17.276c-3.227-2.022-6.585-4.18-8.448-7.502s-1.61-8.162 1.57-10.258Z" class="colorcaeaf9 svgShape"/><path fill="#caeaf9" d="M1634.935 1227.358c-2.364-.503-5.429-.705-6.586 1.418 20.7 24.372 55.127 31.472 87.027 33.69a453.722 453.722 0 0 0 55.529.452c8.256-.44 16.672-1.144 24.283-4.377 7.61-3.233 14.398-9.434 16.305-17.48l-19.56-1.345c-51.531 12.265-105.19-1.325-156.998-12.358ZM1724.055 1311.406a73.87 73.87 0 0 0 58.636-16.552l-18.307-2.61a340.974 340.974 0 0 1-91.021-14.638 73.87 73.87 0 0 0 50.692 33.8Z" class="colorcaeaf9 svgShape"/></g></svg>